<svg xmlns="http://www.w3.org/2000/svg" xmlns:xlink="http://www.w3.org/1999/xlink" width="181.65" zoomAndPan="magnify" viewBox="93.45 140.92 181.65 82.65" height="82.65" preserveAspectRatio="xMidYMid meet" version="1.0"><defs><g/><clipPath id="cca18447f5"><path d="M 126.621094 168.757812 L 147.621094 168.757812 L 147.621094 189.757812 L 126.621094 189.757812 Z M 126.621094 168.757812 " clip-rule="nonzero"/></clipPath></defs><g clip-path="url(#cca18447f5)"><path fill="#060935" d="M 147.617188 179.257812 C 139.742188 180.707031 138.570312 181.882812 137.121094 189.757812 C 135.667969 181.882812 134.496094 180.707031 126.621094 179.257812 C 134.496094 177.808594 135.667969 176.632812 137.121094 168.757812 C 138.570312 176.632812 139.742188 177.808594 147.617188 179.257812 Z M 147.617188 179.257812 " fill-opacity="1" fill-rule="nonzero"/></g><g fill="#060935" fill-opacity="1"><g transform="translate(99.231444, 194.624985)"><g><path d="M 46.796875 22.796875 C 46.585938 22.796875 46.332031 22.726562 46.03125 22.59375 C 45.738281 22.46875 45.625 22.320312 45.6875 22.15625 C 46.90625 18.800781 49.394531 15.03125 53.15625 10.84375 C 56.914062 6.65625 61.4375 2.371094 66.71875 -2 L 65.6875 -2.796875 C 63.28125 -0.078125 61.035156 2.359375 58.953125 4.515625 C 56.878906 6.679688 55.28125 8.21875 54.15625 9.125 C 53.46875 9.65625 52.882812 9.921875 52.40625 9.921875 C 52.132812 9.921875 52 9.8125 52 9.59375 C 52 9.226562 52.375 8.695312 53.125 8 C 53.4375 7.675781 54.164062 6.859375 55.3125 5.546875 C 56.46875 4.242188 57.816406 2.695312 59.359375 0.90625 C 60.910156 -0.871094 62.40625 -2.613281 63.84375 -4.3125 C 62.457031 -5.539062 61.082031 -6.769531 59.71875 -8 C 58.363281 -9.226562 57.019531 -10.507812 55.6875 -11.84375 C 55.519531 -12 55.4375 -12.1875 55.4375 -12.40625 C 55.4375 -12.988281 55.757812 -13.28125 56.40625 -13.28125 C 56.71875 -13.28125 57.0625 -13.117188 57.4375 -12.796875 C 59.945312 -10.347656 62.507812 -8.03125 65.125 -5.84375 C 65.863281 -6.75 66.550781 -7.570312 67.1875 -8.3125 C 67.832031 -9.0625 68.34375 -9.675781 68.71875 -10.15625 C 69.726562 -11.332031 70.941406 -12.757812 72.359375 -14.4375 C 73.773438 -16.113281 75.175781 -17.925781 76.5625 -19.875 C 77.945312 -21.820312 79.09375 -23.78125 80 -25.75 C 80.90625 -27.726562 81.359375 -29.597656 81.359375 -31.359375 C 81.359375 -31.785156 81.316406 -32.195312 81.234375 -32.59375 C 81.160156 -33 81.066406 -33.390625 80.953125 -33.765625 C 79.941406 -36.484375 77.753906 -38.375 74.390625 -39.4375 C 71.035156 -40.507812 67.144531 -41.046875 62.71875 -41.046875 C 59.519531 -41.046875 56.1875 -40.832031 52.71875 -40.40625 C 49.25 -39.976562 45.820312 -39.441406 42.4375 -38.796875 C 39.050781 -38.160156 35.890625 -37.46875 32.953125 -36.71875 C 30.023438 -35.96875 27.492188 -35.273438 25.359375 -34.640625 C 23.222656 -34.003906 21.675781 -33.472656 20.71875 -33.046875 C 15.539062 -30.910156 11.285156 -28.570312 7.953125 -26.03125 C 4.617188 -23.5 2.769531 -20.796875 2.40625 -17.921875 C 2.238281 -16.796875 2.515625 -15.789062 3.234375 -14.90625 C 3.953125 -14.03125 4.910156 -13.300781 6.109375 -12.71875 C 7.316406 -12.132812 8.597656 -11.691406 9.953125 -11.390625 C 11.316406 -11.097656 12.585938 -10.953125 13.765625 -10.953125 C 13.921875 -10.953125 14.359375 -10.925781 15.078125 -10.875 C 15.796875 -10.820312 16.503906 -10.820312 17.203125 -10.875 L 17.359375 -10.875 C 17.734375 -10.875 18.050781 -10.804688 18.3125 -10.671875 C 18.582031 -10.546875 18.71875 -10.375 18.71875 -10.15625 C 18.71875 -10 18.476562 -9.785156 18 -9.515625 C 17.46875 -9.304688 16.8125 -9.160156 16.03125 -9.078125 C 15.257812 -8.992188 14.503906 -8.953125 13.765625 -8.953125 C 12.265625 -8.953125 10.710938 -9.21875 9.109375 -9.75 C 7.515625 -10.289062 6.023438 -11.039062 4.640625 -12 C 3.253906 -12.957031 2.160156 -14.050781 1.359375 -15.28125 C 0.554688 -16.507812 0.238281 -17.84375 0.40625 -19.28125 C 0.71875 -22.320312 2.550781 -25.203125 5.90625 -27.921875 C 9.269531 -30.640625 13.78125 -33.117188 19.4375 -35.359375 C 20.289062 -35.734375 21.769531 -36.210938 23.875 -36.796875 C 25.988281 -37.390625 28.5 -38.046875 31.40625 -38.765625 C 34.3125 -39.484375 37.46875 -40.148438 40.875 -40.765625 C 44.289062 -41.378906 47.769531 -41.882812 51.3125 -42.28125 C 54.863281 -42.675781 58.320312 -42.875 61.6875 -42.875 C 65.625 -42.875 69.21875 -42.515625 72.46875 -41.796875 C 75.726562 -41.078125 78.316406 -39.835938 80.234375 -38.078125 C 82.160156 -36.316406 83.125 -33.914062 83.125 -30.875 C 83.125 -30.613281 83.125 -30.332031 83.125 -30.03125 C 83.125 -29.738281 83.097656 -29.460938 83.046875 -29.203125 C 82.878906 -27.867188 82.316406 -26.238281 81.359375 -24.3125 C 80.398438 -22.394531 79.171875 -20.316406 77.671875 -18.078125 C 76.179688 -15.835938 74.515625 -13.546875 72.671875 -11.203125 C 70.835938 -8.859375 68.960938 -6.59375 67.046875 -4.40625 L 68.40625 -3.359375 C 72.988281 -7.148438 77.945312 -10.910156 83.28125 -14.640625 C 88.613281 -18.367188 94.039062 -21.953125 99.5625 -25.390625 C 105.082031 -28.835938 110.484375 -32 115.765625 -34.875 C 121.046875 -37.757812 126.003906 -40.253906 130.640625 -42.359375 C 135.273438 -44.460938 139.328125 -46.023438 142.796875 -47.046875 C 143.753906 -47.359375 144.632812 -47.515625 145.4375 -47.515625 C 147.039062 -47.515625 147.84375 -46.929688 147.84375 -45.765625 C 147.84375 -44.960938 147.46875 -44 146.71875 -42.875 C 146.507812 -42.5 146.160156 -42.097656 145.671875 -41.671875 C 145.191406 -41.253906 144.820312 -41.046875 144.5625 -41.046875 C 144.457031 -41.046875 144.40625 -41.125 144.40625 -41.28125 C 144.40625 -41.4375 144.484375 -41.703125 144.640625 -42.078125 C 145.335938 -43.460938 145.6875 -44.421875 145.6875 -44.953125 C 145.6875 -45.441406 145.390625 -45.6875 144.796875 -45.6875 C 144.585938 -45.6875 144.347656 -45.65625 144.078125 -45.59375 C 143.816406 -45.539062 143.523438 -45.460938 143.203125 -45.359375 C 140.265625 -44.554688 136.632812 -43.128906 132.3125 -41.078125 C 128 -39.023438 123.269531 -36.53125 118.125 -33.59375 C 112.976562 -30.664062 107.65625 -27.453125 102.15625 -23.953125 C 96.664062 -20.460938 91.238281 -16.8125 85.875 -13 C 80.519531 -9.1875 75.492188 -5.414062 70.796875 -1.6875 C 78.472656 3.488281 86.765625 7.410156 95.671875 10.078125 C 104.585938 12.742188 113.84375 14.078125 123.4375 14.078125 C 124.394531 14.078125 125.523438 13.984375 126.828125 13.796875 C 128.140625 13.609375 129.421875 13.273438 130.671875 12.796875 C 131.929688 12.316406 132.957031 11.660156 133.75 10.828125 C 134.550781 10.003906 134.953125 8.984375 134.953125 7.765625 C 134.953125 7.117188 134.847656 6.476562 134.640625 5.84375 C 134.585938 5.625 134.546875 5.4375 134.515625 5.28125 C 134.492188 5.125 134.484375 4.960938 134.484375 4.796875 C 134.484375 4.160156 134.640625 3.84375 134.953125 3.84375 C 135.273438 3.84375 135.597656 4.242188 135.921875 5.046875 C 136.398438 6.378906 136.640625 7.601562 136.640625 8.71875 C 136.640625 10.582031 136.066406 12.128906 134.921875 13.359375 C 133.773438 14.585938 132.304688 15.546875 130.515625 16.234375 C 128.734375 16.929688 126.851562 17.425781 124.875 17.71875 C 122.90625 18.007812 121.09375 18.15625 119.4375 18.15625 C 110.050781 18.050781 101.117188 16.332031 92.640625 13 C 84.160156 9.664062 76.265625 5.253906 68.953125 -0.234375 C 63.410156 4.242188 58.675781 8.46875 54.75 12.4375 C 50.832031 16.414062 48.34375 19.816406 47.28125 22.640625 C 47.226562 22.742188 47.066406 22.796875 46.796875 22.796875 Z M 46.796875 22.796875 "/></g></g></g><g fill="#060935" fill-opacity="1"><g transform="translate(204.820955, 194.624985)"><g><path d="M 10.71875 0.640625 L 10.40625 0.640625 C 9.863281 0.640625 9.59375 0.320312 9.59375 -0.3125 C 9.59375 -0.851562 9.710938 -1.398438 9.953125 -1.953125 C 10.191406 -2.515625 10.34375 -2.878906 10.40625 -3.046875 C 10.832031 -3.953125 11.507812 -5.148438 12.4375 -6.640625 C 13.375 -8.128906 14.425781 -9.710938 15.59375 -11.390625 C 16.769531 -13.078125 18 -14.679688 19.28125 -16.203125 C 20.5625 -17.722656 21.757812 -18.960938 22.875 -19.921875 C 24 -20.878906 24.960938 -21.359375 25.765625 -21.359375 C 25.972656 -21.359375 26.410156 -21.179688 27.078125 -20.828125 C 27.742188 -20.484375 28.238281 -20.207031 28.5625 -20 C 28.820312 -19.84375 28.953125 -19.628906 28.953125 -19.359375 C 28.953125 -18.929688 28.769531 -18.71875 28.40625 -18.71875 L 28 -18.71875 C 27.84375 -18.71875 27.679688 -18.703125 27.515625 -18.671875 C 27.359375 -18.648438 27.117188 -18.5625 26.796875 -18.40625 C 25.992188 -18.03125 25.003906 -17.347656 23.828125 -16.359375 C 22.660156 -15.367188 21.4375 -14.191406 20.15625 -12.828125 C 18.875 -11.472656 17.660156 -10.101562 16.515625 -8.71875 C 15.367188 -7.332031 14.394531 -6.078125 13.59375 -4.953125 C 12.800781 -3.835938 12.269531 -3.015625 12 -2.484375 C 12.476562 -3.222656 13.273438 -4.140625 14.390625 -5.234375 C 15.515625 -6.328125 16.8125 -7.460938 18.28125 -8.640625 C 19.75 -9.816406 21.269531 -10.894531 22.84375 -11.875 C 24.414062 -12.863281 25.921875 -13.648438 27.359375 -14.234375 C 28.585938 -14.773438 29.679688 -15.046875 30.640625 -15.046875 C 31.921875 -15.046875 32.835938 -14.617188 33.390625 -13.765625 C 33.953125 -12.910156 34.328125 -11.851562 34.515625 -10.59375 C 34.703125 -9.34375 34.847656 -8.078125 34.953125 -6.796875 C 35.171875 -4.773438 35.597656 -3.363281 36.234375 -2.5625 C 36.878906 -1.757812 37.707031 -1.359375 38.71875 -1.359375 C 39.46875 -1.359375 40.320312 -1.53125 41.28125 -1.875 C 42.238281 -2.226562 43.28125 -2.671875 44.40625 -3.203125 C 46.644531 -4.316406 48.945312 -5.710938 51.3125 -7.390625 C 53.6875 -9.078125 55.96875 -10.828125 58.15625 -12.640625 L 63.203125 -16.796875 C 63.628906 -17.117188 63.894531 -17.28125 64 -17.28125 C 64.320312 -17.28125 64.066406 -16.679688 63.234375 -15.484375 C 62.410156 -14.285156 61.066406 -12.910156 59.203125 -11.359375 C 57.765625 -10.179688 56.148438 -8.898438 54.359375 -7.515625 C 52.578125 -6.128906 50.710938 -4.820312 48.765625 -3.59375 C 46.816406 -2.375 44.867188 -1.363281 42.921875 -0.5625 C 40.972656 0.238281 39.144531 0.640625 37.4375 0.640625 C 35.84375 0.640625 34.65625 0.199219 33.875 -0.671875 C 33.101562 -1.554688 32.554688 -2.648438 32.234375 -3.953125 C 31.921875 -5.265625 31.65625 -6.585938 31.4375 -7.921875 C 31.226562 -9.253906 30.894531 -10.359375 30.4375 -11.234375 C 29.988281 -12.117188 29.226562 -12.5625 28.15625 -12.5625 C 27.46875 -12.5625 26.671875 -12.375 25.765625 -12 C 24.859375 -11.625 23.765625 -10.984375 22.484375 -10.078125 C 20.773438 -8.898438 19.238281 -7.710938 17.875 -6.515625 C 16.519531 -5.316406 15.28125 -4.160156 14.15625 -3.046875 C 13.78125 -2.671875 13.328125 -2.1875 12.796875 -1.59375 C 12.265625 -1.007812 11.796875 -0.488281 11.390625 -0.03125 C 10.992188 0.414062 10.769531 0.640625 10.71875 0.640625 Z M 10.71875 0.640625 "/></g></g></g></svg>