<svg xmlns="http://www.w3.org/2000/svg" xmlns:xlink="http://www.w3.org/1999/xlink" width="247.57" zoomAndPan="magnify" viewBox="56.77 105.82 247.57 162.30" height="162.30" preserveAspectRatio="xMidYMid meet" version="1.0"><defs><g/><clipPath id="6cf6f9c946"><path d="M 116.476562 135.3125 L 137.476562 135.3125 L 137.476562 156.3125 L 116.476562 156.3125 Z M 116.476562 135.3125 " clip-rule="nonzero"/></clipPath><clipPath id="2734f6f07b"><rect x="0" width="249" y="0" height="93"/></clipPath></defs><g clip-path="url(#6cf6f9c946)"><path fill="#060935" d="M 137.476562 145.8125 C 129.601562 147.261719 128.425781 148.4375 126.976562 156.3125 C 125.527344 148.4375 124.351562 147.261719 116.476562 145.8125 C 124.351562 144.363281 125.527344 143.1875 126.976562 135.3125 C 128.425781 143.1875 129.601562 144.363281 137.476562 145.8125 Z M 137.476562 145.8125 " fill-opacity="1" fill-rule="nonzero"/></g><g transform="matrix(1, 0, 0, 1, 56, 162)"><g clip-path="url(#2734f6f07b)"><g fill="#060935" fill-opacity="1"><g transform="translate(1.02594, 72.846706)"><g><path d="M 13.84375 0 L 5.9375 0 L 5.9375 -53.4375 L 13.84375 -53.4375 Z M 44.21875 0 L 34.6875 0 L 16.75 -26.515625 L 37.25 -53.4375 L 38.359375 -53.4375 L 22.09375 -32.234375 Z M 44.21875 0 "/></g></g></g><g fill="#060935" fill-opacity="1"><g transform="translate(41.270394, 72.846706)"><g><path d="M 24.28125 -15.515625 L 32.828125 -37.28125 L 33.75 -37.28125 L 18.671875 0 L 15.75 6.875 C 14.382812 10.007812 12.828125 12.503906 11.078125 14.359375 C 9.335938 16.222656 7.6875 17.613281 6.125 18.53125 L 5.609375 17.75 C 6.671875 17.207031 7.742188 16.453125 8.828125 15.484375 C 9.921875 14.515625 10.957031 13.367188 11.9375 12.046875 C 12.914062 10.722656 13.75 9.257812 14.4375 7.65625 L 17.125 1.375 L 16.59375 0 L 1.59375 -37.28125 L 10.09375 -37.28125 L 19.6875 -11.765625 L 21.09375 -7.875 Z M 24.28125 -15.515625 "/></g></g></g><g fill="#060935" fill-opacity="1"><g transform="translate(76.65171, 72.846706)"><g/></g></g><g fill="#060935" fill-opacity="1"><g transform="translate(95.251965, 72.846706)"><g><path d="M 44.75 0 L 41.25 0.40625 L 6.796875 -46.828125 L 6.796875 0 L 5.9375 0 L 5.9375 -53.4375 L 11.140625 -53.4375 L 43.890625 -8.765625 L 43.890625 -53.4375 L 44.75 -53.4375 Z M 44.75 0 "/></g></g></g><g fill="#060935" fill-opacity="1"><g transform="translate(145.929291, 72.846706)"><g><path d="M 17.1875 -38.203125 C 20.800781 -38.203125 23.675781 -37.640625 25.8125 -36.515625 C 27.957031 -35.390625 29.503906 -33.8125 30.453125 -31.78125 C 31.410156 -29.75 31.890625 -27.398438 31.890625 -24.734375 L 31.890625 0 L 30.515625 0 L 25.765625 -6.71875 L 25.515625 -6.5 C 23.554688 -4 21.414062 -2.140625 19.09375 -0.921875 C 16.78125 0.285156 14.273438 0.890625 11.578125 0.890625 C 9.921875 0.890625 8.347656 0.5625 6.859375 -0.09375 C 5.378906 -0.75 4.175781 -1.71875 3.25 -3 C 2.320312 -4.289062 1.859375 -5.863281 1.859375 -7.71875 C 1.859375 -9.75 2.40625 -11.523438 3.5 -13.046875 C 4.601562 -14.566406 6.15625 -15.859375 8.15625 -16.921875 C 10.164062 -17.992188 12.546875 -18.835938 15.296875 -19.453125 C 18.046875 -20.078125 21.078125 -20.5 24.390625 -20.71875 L 24.390625 -25.140625 C 24.390625 -26.796875 24.257812 -28.351562 24 -29.8125 C 23.738281 -31.28125 23.300781 -32.578125 22.6875 -33.703125 C 22.070312 -34.828125 21.222656 -35.707031 20.140625 -36.34375 C 19.066406 -36.988281 17.710938 -37.3125 16.078125 -37.3125 C 14.566406 -37.3125 13.070312 -37.09375 11.59375 -36.65625 C 10.125 -36.226562 8.765625 -35.6875 7.515625 -35.03125 C 6.265625 -34.375 5.21875 -33.703125 4.375 -33.015625 L 3.90625 -33.796875 C 5.65625 -35.023438 7.609375 -36.066406 9.765625 -36.921875 C 11.921875 -37.773438 14.394531 -38.203125 17.1875 -38.203125 Z M 15.75 -2.34375 C 16.9375 -2.34375 18.054688 -2.546875 19.109375 -2.953125 C 20.160156 -3.359375 21.128906 -3.875 22.015625 -4.5 C 22.910156 -5.132812 23.703125 -5.800781 24.390625 -6.5 L 24.390625 -19.984375 C 22.285156 -19.859375 20.296875 -19.519531 18.421875 -18.96875 C 16.554688 -18.425781 14.921875 -17.695312 13.515625 -16.78125 C 12.109375 -15.863281 11 -14.765625 10.1875 -13.484375 C 9.382812 -12.210938 8.984375 -10.773438 8.984375 -9.171875 C 8.984375 -7.117188 9.609375 -5.46875 10.859375 -4.21875 C 12.109375 -2.96875 13.738281 -2.34375 15.75 -2.34375 Z M 15.75 -2.34375 "/></g></g></g><g fill="#060935" fill-opacity="1"><g transform="translate(182.535765, 72.846706)"><g><path d="M 49.15625 -38.171875 C 51.289062 -38.171875 53.148438 -37.71875 54.734375 -36.8125 C 56.316406 -35.914062 57.546875 -34.628906 58.421875 -32.953125 C 59.304688 -31.285156 59.75 -29.300781 59.75 -27 L 59.75 0 L 52.359375 0 L 52.359375 -26.515625 C 52.359375 -29.179688 51.769531 -31.265625 50.59375 -32.765625 C 49.414062 -34.265625 47.710938 -35.015625 45.484375 -35.015625 C 43.453125 -35.015625 41.65625 -34.570312 40.09375 -33.6875 C 38.539062 -32.8125 37.117188 -31.617188 35.828125 -30.109375 C 36.054688 -29.148438 36.171875 -28.113281 36.171875 -27 L 36.171875 0 L 28.78125 0 L 28.78125 -26.546875 C 28.78125 -29.191406 28.191406 -31.269531 27.015625 -32.78125 C 25.835938 -34.289062 24.132812 -35.046875 21.90625 -35.046875 C 20.175781 -35.046875 18.503906 -34.6875 16.890625 -33.96875 C 15.285156 -33.257812 13.835938 -32.269531 12.546875 -31 L 12.546875 0 L 5.203125 0 L 5.046875 -28.03125 L 5.046875 -37.28125 L 6.421875 -37.28125 L 11.171875 -31.046875 L 11.65625 -31.265625 C 13.738281 -33.515625 15.960938 -35.226562 18.328125 -36.40625 C 20.691406 -37.582031 23.109375 -38.171875 25.578125 -38.171875 C 28.078125 -38.171875 30.195312 -37.550781 31.9375 -36.3125 C 33.6875 -35.070312 34.898438 -33.335938 35.578125 -31.109375 C 37.679688 -33.515625 39.820312 -35.289062 42 -36.4375 C 44.175781 -37.59375 46.5625 -38.171875 49.15625 -38.171875 Z M 49.15625 -38.171875 "/></g></g></g></g></g><g fill="#060935" fill-opacity="1"><g transform="translate(145.714089, 253.334366)"><g><path d="M 4.21875 2.90625 C 3.769531 2.90625 3.335938 2.851562 2.921875 2.75 C 2.378906 2.582031 1.894531 2.332031 1.46875 2 C 1.039062 1.675781 0.722656 1.25 0.515625 0.71875 C 0.503906 0.664062 0.492188 0.617188 0.484375 0.578125 C 0.472656 0.546875 0.46875 0.519531 0.46875 0.5 C 0.46875 0.414062 0.488281 0.375 0.53125 0.375 C 0.601562 0.375 0.664062 0.472656 0.71875 0.671875 C 0.914062 1.191406 1.210938 1.601562 1.609375 1.90625 C 2.015625 2.21875 2.492188 2.421875 3.046875 2.515625 C 3.203125 2.554688 3.351562 2.582031 3.5 2.59375 C 3.644531 2.601562 3.796875 2.609375 3.953125 2.609375 C 4.472656 2.609375 4.972656 2.53125 5.453125 2.375 C 5.941406 2.226562 6.390625 2.039062 6.796875 1.8125 C 7.296875 1.539062 7.851562 1.140625 8.46875 0.609375 C 9.09375 0.078125 9.734375 -0.535156 10.390625 -1.234375 C 11.046875 -1.941406 11.679688 -2.6875 12.296875 -3.46875 C 12.921875 -4.257812 13.484375 -5.046875 13.984375 -5.828125 C 14.492188 -6.617188 14.898438 -7.367188 15.203125 -8.078125 C 14.878906 -8.734375 14.410156 -9.195312 13.796875 -9.46875 C 13.179688 -9.75 12.492188 -9.890625 11.734375 -9.890625 C 11.441406 -9.890625 11.132812 -9.875 10.8125 -9.84375 C 9.21875 -9.65625 7.726562 -9.179688 6.34375 -8.421875 C 4.957031 -7.660156 3.707031 -6.773438 2.59375 -5.765625 C 2.21875 -5.421875 1.851562 -5.066406 1.5 -4.703125 C 1.144531 -4.335938 0.859375 -3.988281 0.640625 -3.65625 C 0.421875 -3.332031 0.3125 -3.050781 0.3125 -2.8125 C 0.3125 -2.738281 0.28125 -2.703125 0.21875 -2.703125 C 0.15625 -2.703125 0.109375 -2.75 0.078125 -2.84375 C 0.0351562 -2.96875 0 -3.082031 -0.03125 -3.1875 C -0.0625 -3.300781 -0.078125 -3.394531 -0.078125 -3.46875 C -0.078125 -3.53125 -0.0625 -3.597656 -0.03125 -3.671875 C 0.0585938 -3.960938 0.238281 -4.273438 0.5 -4.609375 C 0.769531 -4.941406 1.085938 -5.273438 1.453125 -5.609375 C 1.816406 -5.953125 2.1875 -6.269531 2.5625 -6.5625 C 3.75 -7.488281 5.035156 -8.265625 6.421875 -8.890625 C 7.804688 -9.523438 9.234375 -9.921875 10.703125 -10.078125 C 11.054688 -10.109375 11.40625 -10.125 11.75 -10.125 C 12.507812 -10.125 13.207031 -10.015625 13.84375 -9.796875 C 14.488281 -9.578125 15.023438 -9.210938 15.453125 -8.703125 L 15.5625 -9.015625 C 15.644531 -9.234375 15.707031 -9.34375 15.75 -9.34375 C 15.789062 -9.34375 15.820312 -9.3125 15.84375 -9.25 C 15.863281 -9.1875 15.875 -9.113281 15.875 -9.03125 C 15.875 -8.957031 15.867188 -8.910156 15.859375 -8.890625 L 15.671875 -8.390625 C 15.785156 -8.203125 15.890625 -8.003906 15.984375 -7.796875 C 16.078125 -7.585938 16.15625 -7.359375 16.21875 -7.109375 C 16.3125 -6.710938 16.375 -6.300781 16.40625 -5.875 C 16.445312 -5.445312 16.46875 -5.019531 16.46875 -4.59375 C 16.46875 -4.238281 16.457031 -3.882812 16.4375 -3.53125 C 16.414062 -3.1875 16.390625 -2.84375 16.359375 -2.5 C 16.648438 -3.1875 17.003906 -3.898438 17.421875 -4.640625 C 17.835938 -5.390625 18.296875 -6.113281 18.796875 -6.8125 C 19.304688 -7.519531 19.847656 -8.144531 20.421875 -8.6875 C 20.992188 -9.238281 21.582031 -9.664062 22.1875 -9.96875 C 22.800781 -10.269531 23.421875 -10.394531 24.046875 -10.34375 C 24.253906 -10.320312 24.445312 -10.238281 24.625 -10.09375 C 24.800781 -9.945312 24.890625 -9.757812 24.890625 -9.53125 C 24.890625 -9.445312 24.875 -9.351562 24.84375 -9.25 C 24.820312 -9.207031 24.796875 -9.164062 24.765625 -9.125 C 24.742188 -9.09375 24.722656 -9.078125 24.703125 -9.078125 C 24.660156 -9.078125 24.644531 -9.144531 24.65625 -9.28125 C 24.707031 -9.550781 24.628906 -9.710938 24.421875 -9.765625 C 24.210938 -9.828125 23.988281 -9.859375 23.75 -9.859375 C 23.269531 -9.859375 22.757812 -9.679688 22.21875 -9.328125 C 21.6875 -8.972656 21.140625 -8.507812 20.578125 -7.9375 C 20.015625 -7.375 19.472656 -6.75 18.953125 -6.0625 C 18.441406 -5.375 17.976562 -4.6875 17.5625 -4 C 17.144531 -3.3125 16.800781 -2.679688 16.53125 -2.109375 C 16.46875 -1.984375 16.410156 -1.851562 16.359375 -1.71875 C 16.304688 -1.582031 16.25 -1.453125 16.1875 -1.328125 C 16.144531 -1.023438 16.09375 -0.734375 16.03125 -0.453125 C 15.976562 -0.179688 15.921875 0.0703125 15.859375 0.3125 C 15.835938 0.40625 15.742188 0.507812 15.578125 0.625 C 15.472656 1.113281 15.421875 1.550781 15.421875 1.9375 C 15.410156 2.070312 15.363281 2.140625 15.28125 2.140625 C 15.195312 2.140625 15.15625 2.097656 15.15625 2.015625 C 15.144531 1.953125 15.140625 1.890625 15.140625 1.828125 C 15.140625 1.773438 15.140625 1.71875 15.140625 1.65625 C 15.140625 1.375 15.171875 1.078125 15.234375 0.765625 L 15.1875 0.765625 C 15.007812 0.765625 14.945312 0.6875 15 0.53125 C 15.113281 0.09375 15.222656 -0.421875 15.328125 -1.015625 C 15.429688 -1.617188 15.519531 -2.257812 15.59375 -2.9375 C 15.675781 -3.613281 15.71875 -4.289062 15.71875 -4.96875 C 15.71875 -5.289062 15.707031 -5.601562 15.6875 -5.90625 C 15.675781 -6.21875 15.644531 -6.519531 15.59375 -6.8125 C 15.570312 -6.976562 15.539062 -7.132812 15.5 -7.28125 C 15.457031 -7.425781 15.410156 -7.566406 15.359375 -7.703125 C 14.898438 -6.703125 14.359375 -5.6875 13.734375 -4.65625 C 13.109375 -3.632812 12.429688 -2.664062 11.703125 -1.75 C 10.984375 -0.832031 10.25 -0.0234375 9.5 0.671875 C 8.757812 1.367188 8.046875 1.878906 7.359375 2.203125 C 6.921875 2.398438 6.425781 2.566406 5.875 2.703125 C 5.320312 2.835938 4.769531 2.90625 4.21875 2.90625 Z M 4.21875 2.90625 "/></g></g></g><g fill="#060935" fill-opacity="1"><g transform="translate(163.668734, 253.334366)"><g><path d="M 0.734375 6.921875 C 0.492188 6.921875 0.242188 6.882812 -0.015625 6.8125 C -0.273438 6.75 -0.492188 6.628906 -0.671875 6.453125 C -0.859375 6.273438 -0.953125 6.019531 -0.953125 5.6875 C -0.953125 5.25 -0.832031 4.832031 -0.59375 4.4375 C -0.351562 4.039062 -0.0429688 3.675781 0.328125 3.34375 C 0.710938 3.007812 1.109375 2.710938 1.515625 2.453125 C 2.023438 2.117188 2.570312 1.804688 3.15625 1.515625 C 3.75 1.222656 4.359375 0.972656 4.984375 0.765625 C 5.617188 0.566406 6.253906 0.457031 6.890625 0.4375 C 7.117188 -0.0078125 7.300781 -0.46875 7.4375 -0.9375 C 7.570312 -1.40625 7.640625 -1.816406 7.640625 -2.171875 C 7.640625 -2.460938 7.585938 -2.679688 7.484375 -2.828125 C 7.378906 -2.753906 7.304688 -2.679688 7.265625 -2.609375 C 7.097656 -2.429688 6.867188 -2.195312 6.578125 -1.90625 C 6.296875 -1.613281 5.972656 -1.3125 5.609375 -1 C 5.253906 -0.695312 4.894531 -0.4375 4.53125 -0.21875 C 4.164062 -0.0078125 3.828125 0.09375 3.515625 0.09375 C 3.359375 0.09375 3.207031 0.0546875 3.0625 -0.015625 C 2.914062 -0.0859375 2.789062 -0.203125 2.6875 -0.359375 C 2.550781 -0.546875 2.484375 -0.753906 2.484375 -0.984375 C 2.484375 -1.328125 2.59375 -1.695312 2.8125 -2.09375 C 3.03125 -2.5 3.304688 -2.890625 3.640625 -3.265625 C 3.972656 -3.640625 4.332031 -3.96875 4.71875 -4.25 C 5.101562 -4.53125 5.457031 -4.726562 5.78125 -4.84375 C 5.882812 -4.882812 6 -4.914062 6.125 -4.9375 C 6.25 -4.957031 6.382812 -4.96875 6.53125 -4.96875 C 6.851562 -4.96875 7.164062 -4.894531 7.46875 -4.75 C 7.769531 -4.613281 7.941406 -4.363281 7.984375 -4 L 7.984375 -3.953125 C 7.984375 -3.867188 7.960938 -3.800781 7.921875 -3.75 C 7.890625 -3.695312 7.851562 -3.671875 7.8125 -3.671875 C 7.757812 -3.671875 7.734375 -3.71875 7.734375 -3.8125 C 7.734375 -3.875 7.71875 -3.957031 7.6875 -4.0625 C 7.65625 -4.175781 7.585938 -4.28125 7.484375 -4.375 C 7.378906 -4.46875 7.21875 -4.515625 7 -4.515625 C 6.632812 -4.515625 6.234375 -4.382812 5.796875 -4.125 C 5.359375 -3.875 4.929688 -3.554688 4.515625 -3.171875 C 4.109375 -2.785156 3.757812 -2.382812 3.46875 -1.96875 C 3.1875 -1.5625 3.023438 -1.195312 2.984375 -0.875 C 2.972656 -0.832031 2.96875 -0.789062 2.96875 -0.75 C 2.96875 -0.71875 2.96875 -0.6875 2.96875 -0.65625 C 2.96875 -0.3125 3.097656 -0.140625 3.359375 -0.140625 C 3.546875 -0.140625 3.765625 -0.210938 4.015625 -0.359375 C 4.265625 -0.503906 4.503906 -0.664062 4.734375 -0.84375 C 4.960938 -1.019531 5.125 -1.148438 5.21875 -1.234375 C 5.539062 -1.503906 5.875 -1.789062 6.21875 -2.09375 C 6.5625 -2.394531 6.898438 -2.691406 7.234375 -2.984375 C 7.203125 -3.003906 7.1875 -3.050781 7.1875 -3.125 C 7.1875 -3.195312 7.21875 -3.273438 7.28125 -3.359375 C 7.34375 -3.453125 7.460938 -3.5 7.640625 -3.5 C 7.941406 -3.5 8.148438 -3.398438 8.265625 -3.203125 C 8.390625 -3.003906 8.453125 -2.757812 8.453125 -2.46875 C 8.453125 -2.070312 8.363281 -1.601562 8.1875 -1.0625 C 8.019531 -0.53125 7.828125 -0.0234375 7.609375 0.453125 C 7.890625 0.460938 8.1875 0.507812 8.5 0.59375 C 8.8125 0.6875 8.992188 0.84375 9.046875 1.0625 C 9.066406 1.09375 9.0625 1.117188 9.03125 1.140625 C 9 1.171875 8.976562 1.160156 8.96875 1.109375 C 8.882812 0.941406 8.6875 0.828125 8.375 0.765625 C 8.0625 0.710938 7.769531 0.691406 7.5 0.703125 C 7.40625 0.929688 7.304688 1.140625 7.203125 1.328125 C 7.109375 1.515625 7.019531 1.679688 6.9375 1.828125 C 6.539062 2.535156 6.09375 3.195312 5.59375 3.8125 C 5.09375 4.425781 4.5625 4.960938 4 5.421875 C 3.445312 5.890625 2.890625 6.253906 2.328125 6.515625 C 1.773438 6.785156 1.242188 6.921875 0.734375 6.921875 Z M 0.546875 6.65625 C 1.171875 6.65625 1.765625 6.484375 2.328125 6.140625 C 2.898438 5.804688 3.445312 5.359375 3.96875 4.796875 C 4.5 4.234375 4.992188 3.601562 5.453125 2.90625 C 5.910156 2.207031 6.332031 1.492188 6.71875 0.765625 C 5.6875 0.878906 4.671875 1.195312 3.671875 1.71875 C 2.671875 2.25 1.753906 2.863281 0.921875 3.5625 C 0.410156 3.976562 0.0390625 4.367188 -0.1875 4.734375 C -0.414062 5.109375 -0.53125 5.4375 -0.53125 5.71875 C -0.53125 6 -0.429688 6.222656 -0.234375 6.390625 C -0.046875 6.566406 0.210938 6.65625 0.546875 6.65625 Z M 0.546875 6.65625 "/></g></g></g><g fill="#060935" fill-opacity="1"><g transform="translate(172.593351, 253.334366)"><g><path d="M 8.0625 0.171875 C 7.570312 0.171875 7.226562 0.0546875 7.03125 -0.171875 C 6.84375 -0.410156 6.75 -0.703125 6.75 -1.046875 C 6.75 -1.285156 6.789062 -1.539062 6.875 -1.8125 C 6.957031 -2.082031 7.046875 -2.335938 7.140625 -2.578125 C 6.972656 -2.398438 6.75 -2.160156 6.46875 -1.859375 C 6.1875 -1.566406 5.875 -1.269531 5.53125 -0.96875 C 5.195312 -0.675781 4.847656 -0.425781 4.484375 -0.21875 C 4.128906 -0.0078125 3.800781 0.09375 3.5 0.09375 C 3.34375 0.09375 3.191406 0.0546875 3.046875 -0.015625 C 2.910156 -0.0859375 2.789062 -0.203125 2.6875 -0.359375 C 2.5625 -0.515625 2.5 -0.707031 2.5 -0.9375 C 2.5 -1.3125 2.632812 -1.71875 2.90625 -2.15625 C 3.1875 -2.59375 3.53125 -3.007812 3.9375 -3.40625 C 3.96875 -3.445312 4.03125 -3.507812 4.125 -3.59375 C 4.226562 -3.6875 4.316406 -3.757812 4.390625 -3.8125 C 4.347656 -3.84375 4.375 -3.925781 4.46875 -4.0625 C 4.5625 -4.207031 4.6875 -4.335938 4.84375 -4.453125 C 5 -4.578125 5.132812 -4.601562 5.25 -4.53125 C 5.363281 -4.476562 5.457031 -4.414062 5.53125 -4.34375 C 5.601562 -4.28125 5.640625 -4.210938 5.640625 -4.140625 C 5.640625 -4.078125 5.585938 -3.988281 5.484375 -3.875 L 5.109375 -3.53125 C 4.804688 -3.238281 4.492188 -2.925781 4.171875 -2.59375 C 3.859375 -2.269531 3.585938 -1.957031 3.359375 -1.65625 C 3.140625 -1.363281 3.015625 -1.101562 2.984375 -0.875 C 2.972656 -0.832031 2.96875 -0.789062 2.96875 -0.75 C 2.96875 -0.71875 2.96875 -0.6875 2.96875 -0.65625 C 2.96875 -0.3125 3.097656 -0.140625 3.359375 -0.140625 C 3.546875 -0.140625 3.765625 -0.210938 4.015625 -0.359375 C 4.265625 -0.503906 4.503906 -0.664062 4.734375 -0.84375 C 4.960938 -1.019531 5.125 -1.148438 5.21875 -1.234375 C 5.59375 -1.554688 5.984375 -1.894531 6.390625 -2.25 C 6.804688 -2.601562 7.203125 -2.945312 7.578125 -3.28125 C 7.640625 -3.3125 7.707031 -3.328125 7.78125 -3.328125 C 7.914062 -3.328125 8.023438 -3.285156 8.109375 -3.203125 C 8.148438 -3.171875 8.171875 -3.125 8.171875 -3.0625 C 8.171875 -2.925781 8.101562 -2.734375 7.96875 -2.484375 C 7.84375 -2.234375 7.710938 -1.96875 7.578125 -1.6875 C 7.441406 -1.40625 7.359375 -1.144531 7.328125 -0.90625 C 7.304688 -0.851562 7.296875 -0.804688 7.296875 -0.765625 C 7.296875 -0.734375 7.296875 -0.703125 7.296875 -0.671875 C 7.296875 -0.441406 7.359375 -0.285156 7.484375 -0.203125 C 7.609375 -0.128906 7.765625 -0.09375 7.953125 -0.09375 C 8.191406 -0.09375 8.4375 -0.128906 8.6875 -0.203125 C 8.9375 -0.273438 9.140625 -0.34375 9.296875 -0.40625 C 9.921875 -0.644531 10.546875 -0.976562 11.171875 -1.40625 C 11.804688 -1.832031 12.378906 -2.242188 12.890625 -2.640625 C 13.023438 -2.734375 13.148438 -2.820312 13.265625 -2.90625 C 13.378906 -3 13.5 -3.097656 13.625 -3.203125 C 13.71875 -3.273438 13.773438 -3.3125 13.796875 -3.3125 C 13.804688 -3.3125 13.8125 -3.304688 13.8125 -3.296875 C 13.8125 -3.273438 13.789062 -3.234375 13.75 -3.171875 C 13.71875 -3.117188 13.691406 -3.066406 13.671875 -3.015625 C 13.523438 -2.804688 13.25 -2.523438 12.84375 -2.171875 C 12.445312 -1.816406 11.976562 -1.460938 11.4375 -1.109375 C 10.90625 -0.753906 10.363281 -0.460938 9.8125 -0.234375 C 9.507812 -0.109375 9.21875 -0.0078125 8.9375 0.0625 C 8.65625 0.132812 8.363281 0.171875 8.0625 0.171875 Z M 8.0625 0.171875 "/></g></g></g><g fill="#060935" fill-opacity="1"><g transform="translate(182.840734, 253.334366)"><g><path d="M -2.171875 8.71875 C -2.492188 8.71875 -2.820312 8.671875 -3.15625 8.578125 C -3.488281 8.484375 -3.757812 8.328125 -3.96875 8.109375 C -4.1875 7.890625 -4.296875 7.597656 -4.296875 7.234375 C -4.296875 7.179688 -4.296875 7.128906 -4.296875 7.078125 C -4.296875 7.035156 -4.289062 6.992188 -4.28125 6.953125 C -4.1875 6.398438 -3.941406 5.878906 -3.546875 5.390625 C -3.148438 4.898438 -2.644531 4.441406 -2.03125 4.015625 C -1.425781 3.585938 -0.769531 3.191406 -0.0625 2.828125 C 0.644531 2.472656 1.363281 2.15625 2.09375 1.875 C 2.820312 1.601562 3.507812 1.367188 4.15625 1.171875 C 4.8125 0.972656 5.367188 0.828125 5.828125 0.734375 C 5.984375 0.703125 6.144531 0.675781 6.3125 0.65625 C 6.476562 0.632812 6.640625 0.613281 6.796875 0.59375 C 7.035156 0.132812 7.234375 -0.347656 7.390625 -0.859375 C 7.546875 -1.367188 7.625 -1.804688 7.625 -2.171875 C 7.625 -2.535156 7.546875 -2.773438 7.390625 -2.890625 L 7.34375 -2.84375 C 7.15625 -2.65625 6.878906 -2.351562 6.515625 -1.9375 C 6.148438 -1.519531 5.757812 -1.140625 5.34375 -0.796875 C 5.03125 -0.535156 4.710938 -0.320312 4.390625 -0.15625 C 4.078125 0.0078125 3.785156 0.09375 3.515625 0.09375 C 3.347656 0.09375 3.191406 0.0546875 3.046875 -0.015625 C 2.898438 -0.0859375 2.769531 -0.203125 2.65625 -0.359375 C 2.539062 -0.515625 2.484375 -0.707031 2.484375 -0.9375 C 2.484375 -1.3125 2.617188 -1.71875 2.890625 -2.15625 C 3.171875 -2.59375 3.515625 -3.007812 3.921875 -3.40625 C 3.953125 -3.445312 4.015625 -3.507812 4.109375 -3.59375 C 4.210938 -3.6875 4.300781 -3.757812 4.375 -3.8125 C 4.320312 -3.84375 4.34375 -3.925781 4.4375 -4.0625 C 4.539062 -4.207031 4.671875 -4.335938 4.828125 -4.453125 C 4.984375 -4.578125 5.117188 -4.601562 5.234375 -4.53125 C 5.335938 -4.476562 5.425781 -4.414062 5.5 -4.34375 C 5.582031 -4.28125 5.625 -4.210938 5.625 -4.140625 C 5.625 -4.078125 5.570312 -3.988281 5.46875 -3.875 L 5.09375 -3.53125 C 4.789062 -3.238281 4.476562 -2.925781 4.15625 -2.59375 C 3.84375 -2.269531 3.570312 -1.957031 3.34375 -1.65625 C 3.125 -1.363281 3 -1.101562 2.96875 -0.875 C 2.957031 -0.832031 2.953125 -0.789062 2.953125 -0.75 C 2.953125 -0.71875 2.953125 -0.6875 2.953125 -0.65625 C 2.953125 -0.3125 3.078125 -0.140625 3.328125 -0.140625 C 3.515625 -0.140625 3.734375 -0.210938 3.984375 -0.359375 C 4.242188 -0.503906 4.488281 -0.664062 4.71875 -0.84375 C 4.945312 -1.019531 5.109375 -1.148438 5.203125 -1.234375 C 5.546875 -1.515625 5.878906 -1.8125 6.203125 -2.125 C 6.523438 -2.445312 6.84375 -2.753906 7.15625 -3.046875 C 7.144531 -3.117188 7.179688 -3.210938 7.265625 -3.328125 C 7.347656 -3.441406 7.53125 -3.5 7.8125 -3.5 C 8.25 -3.5 8.46875 -3.160156 8.46875 -2.484375 C 8.46875 -2.160156 8.40625 -1.757812 8.28125 -1.28125 C 8.15625 -0.800781 7.960938 -0.277344 7.703125 0.28125 C 7.679688 0.332031 7.660156 0.378906 7.640625 0.421875 C 7.617188 0.472656 7.59375 0.523438 7.5625 0.578125 C 7.832031 0.578125 8.109375 0.597656 8.390625 0.640625 C 8.773438 0.679688 9.128906 0.75 9.453125 0.84375 C 9.785156 0.945312 9.992188 1.101562 10.078125 1.3125 C 10.078125 1.320312 10.078125 1.328125 10.078125 1.328125 C 10.085938 1.335938 10.09375 1.34375 10.09375 1.34375 C 10.09375 1.382812 10.066406 1.414062 10.015625 1.4375 C 9.972656 1.457031 9.9375 1.441406 9.90625 1.390625 C 9.84375 1.242188 9.65625 1.128906 9.34375 1.046875 C 9.039062 0.972656 8.710938 0.925781 8.359375 0.90625 C 8.191406 0.875 8.03125 0.859375 7.875 0.859375 C 7.726562 0.859375 7.570312 0.863281 7.40625 0.875 C 7.039062 1.582031 6.585938 2.300781 6.046875 3.03125 C 5.515625 3.769531 4.925781 4.476562 4.28125 5.15625 C 3.632812 5.832031 2.953125 6.4375 2.234375 6.96875 C 1.523438 7.507812 0.796875 7.9375 0.046875 8.25 C -0.703125 8.5625 -1.441406 8.71875 -2.171875 8.71875 Z M -2.359375 8.4375 C -1.640625 8.4375 -0.925781 8.273438 -0.21875 7.953125 C 0.488281 7.628906 1.179688 7.195312 1.859375 6.65625 C 2.535156 6.113281 3.171875 5.507812 3.765625 4.84375 C 4.359375 4.1875 4.894531 3.519531 5.375 2.84375 C 5.863281 2.164062 6.269531 1.535156 6.59375 0.953125 C 6.457031 0.960938 6.316406 0.976562 6.171875 1 C 6.035156 1.03125 5.890625 1.0625 5.734375 1.09375 C 4.941406 1.25 4.101562 1.488281 3.21875 1.8125 C 2.332031 2.144531 1.457031 2.539062 0.59375 3 C -0.269531 3.457031 -1.085938 3.957031 -1.859375 4.5 C -2.609375 5.03125 -3.144531 5.53125 -3.46875 6 C -3.800781 6.46875 -3.96875 6.878906 -3.96875 7.234375 C -3.96875 7.597656 -3.816406 7.890625 -3.515625 8.109375 C -3.210938 8.328125 -2.828125 8.4375 -2.359375 8.4375 Z M -2.359375 8.4375 "/></g></g></g><g fill="#060935" fill-opacity="1"><g transform="translate(190.812962, 253.334366)"><g><path d="M 5.046875 0.03125 C 4.785156 0.03125 4.53125 -0.00390625 4.28125 -0.078125 C 4.03125 -0.148438 3.789062 -0.273438 3.5625 -0.453125 C 3.175781 -0.773438 2.984375 -1.160156 2.984375 -1.609375 C 2.984375 -2.003906 3.113281 -2.40625 3.375 -2.8125 C 3.644531 -3.21875 3.972656 -3.597656 4.359375 -3.953125 C 4.742188 -4.304688 5.125 -4.585938 5.5 -4.796875 C 5.632812 -4.878906 5.800781 -4.941406 6 -4.984375 C 6.207031 -5.023438 6.40625 -5.046875 6.59375 -5.046875 C 6.664062 -5.046875 6.734375 -5.046875 6.796875 -5.046875 C 6.859375 -5.046875 6.914062 -5.035156 6.96875 -5.015625 C 7.257812 -4.929688 7.472656 -4.804688 7.609375 -4.640625 C 7.742188 -4.472656 7.8125 -4.289062 7.8125 -4.09375 C 7.8125 -3.800781 7.71875 -3.550781 7.53125 -3.34375 C 7.34375 -3.132812 7.101562 -2.960938 6.8125 -2.828125 C 6.53125 -2.691406 6.234375 -2.582031 5.921875 -2.5 C 5.609375 -2.414062 5.316406 -2.359375 5.046875 -2.328125 C 4.785156 -2.304688 4.59375 -2.296875 4.46875 -2.296875 C 4.195312 -2.296875 3.992188 -2.3125 3.859375 -2.34375 C 3.648438 -2.03125 3.519531 -1.742188 3.46875 -1.484375 C 3.457031 -1.441406 3.453125 -1.398438 3.453125 -1.359375 C 3.453125 -1.328125 3.453125 -1.289062 3.453125 -1.25 C 3.453125 -0.988281 3.5625 -0.757812 3.78125 -0.5625 C 4 -0.375 4.375 -0.28125 4.90625 -0.28125 C 5.382812 -0.289062 5.890625 -0.398438 6.421875 -0.609375 C 6.960938 -0.828125 7.492188 -1.101562 8.015625 -1.4375 C 8.535156 -1.769531 9.03125 -2.117188 9.5 -2.484375 C 9.976562 -2.859375 10.398438 -3.207031 10.765625 -3.53125 C 10.785156 -3.550781 10.8125 -3.5625 10.84375 -3.5625 C 10.882812 -3.5625 10.90625 -3.539062 10.90625 -3.5 C 10.914062 -3.46875 10.898438 -3.425781 10.859375 -3.375 C 10.734375 -3.1875 10.507812 -2.957031 10.1875 -2.6875 C 9.875 -2.414062 9.53125 -2.132812 9.15625 -1.84375 C 8.789062 -1.5625 8.453125 -1.316406 8.140625 -1.109375 C 7.828125 -0.898438 7.609375 -0.757812 7.484375 -0.6875 C 7.128906 -0.5 6.738281 -0.332031 6.3125 -0.1875 C 5.894531 -0.0390625 5.472656 0.03125 5.046875 0.03125 Z M 4.25 -2.5 C 4.34375 -2.5 4.445312 -2.503906 4.5625 -2.515625 C 4.6875 -2.535156 4.8125 -2.554688 4.9375 -2.578125 C 5.113281 -2.609375 5.335938 -2.664062 5.609375 -2.75 C 5.878906 -2.84375 6.148438 -2.957031 6.421875 -3.09375 C 6.703125 -3.238281 6.9375 -3.410156 7.125 -3.609375 C 7.3125 -3.804688 7.40625 -4.019531 7.40625 -4.25 C 7.40625 -4.476562 7.265625 -4.59375 6.984375 -4.59375 C 6.765625 -4.59375 6.492188 -4.515625 6.171875 -4.359375 C 5.804688 -4.179688 5.421875 -3.925781 5.015625 -3.59375 C 4.609375 -3.257812 4.265625 -2.898438 3.984375 -2.515625 C 4.023438 -2.503906 4.066406 -2.5 4.109375 -2.5 C 4.160156 -2.5 4.207031 -2.5 4.25 -2.5 Z M 5.015625 -5.953125 C 4.972656 -5.953125 4.957031 -5.976562 4.96875 -6.03125 C 4.976562 -6.082031 5.035156 -6.140625 5.140625 -6.203125 C 5.316406 -6.328125 5.546875 -6.476562 5.828125 -6.65625 C 6.109375 -6.832031 6.40625 -7.015625 6.71875 -7.203125 C 7.039062 -7.398438 7.335938 -7.578125 7.609375 -7.734375 C 7.703125 -7.722656 7.882812 -7.484375 8.15625 -7.015625 C 8.226562 -6.859375 8.296875 -6.710938 8.359375 -6.578125 C 8.429688 -6.441406 8.472656 -6.332031 8.484375 -6.25 C 8.523438 -6.195312 8.539062 -6.132812 8.53125 -6.0625 C 8.519531 -6.007812 8.492188 -5.972656 8.453125 -5.953125 C 8.410156 -5.929688 8.375 -5.929688 8.34375 -5.953125 C 8.28125 -6.085938 8.1875 -6.238281 8.0625 -6.40625 C 7.9375 -6.582031 7.820312 -6.742188 7.71875 -6.890625 C 7.625 -7.046875 7.550781 -7.148438 7.5 -7.203125 C 7.375 -7.140625 7.203125 -7.039062 6.984375 -6.90625 C 6.765625 -6.78125 6.507812 -6.632812 6.21875 -6.46875 C 5.914062 -6.289062 5.660156 -6.160156 5.453125 -6.078125 C 5.253906 -6.003906 5.117188 -5.960938 5.046875 -5.953125 Z M 8.515625 -8.0625 C 8.304688 -8.0625 8.050781 -8.125 7.75 -8.25 C 7.414062 -8.394531 7.175781 -8.46875 7.03125 -8.46875 C 6.851562 -8.46875 6.6875 -8.398438 6.53125 -8.265625 C 6.375 -8.140625 6.265625 -8.078125 6.203125 -8.078125 C 6.191406 -8.085938 6.1875 -8.097656 6.1875 -8.109375 C 6.1875 -8.191406 6.238281 -8.28125 6.34375 -8.375 C 6.457031 -8.46875 6.617188 -8.582031 6.828125 -8.71875 C 6.984375 -8.820312 7.164062 -8.875 7.375 -8.875 C 7.550781 -8.875 7.789062 -8.820312 8.09375 -8.71875 C 8.25 -8.664062 8.382812 -8.625 8.5 -8.59375 C 8.613281 -8.570312 8.710938 -8.5625 8.796875 -8.5625 C 9.035156 -8.5625 9.242188 -8.664062 9.421875 -8.875 C 9.484375 -8.875 9.515625 -8.851562 9.515625 -8.8125 C 9.515625 -8.738281 9.46875 -8.644531 9.375 -8.53125 C 9.28125 -8.425781 9.125 -8.304688 8.90625 -8.171875 C 8.78125 -8.097656 8.648438 -8.0625 8.515625 -8.0625 Z M 8.515625 -8.0625 "/></g></g></g><g fill="#060935" fill-opacity="1"><g transform="translate(197.850449, 253.334366)"><g><path d="M 2.359375 0.140625 L 2.296875 0.140625 C 2.171875 0.140625 2.109375 0.0664062 2.109375 -0.078125 C 2.109375 -0.191406 2.132812 -0.3125 2.1875 -0.4375 C 2.25 -0.5625 2.285156 -0.640625 2.296875 -0.671875 C 2.390625 -0.867188 2.535156 -1.128906 2.734375 -1.453125 C 2.941406 -1.785156 3.175781 -2.132812 3.4375 -2.5 C 3.695312 -2.875 3.96875 -3.226562 4.25 -3.5625 C 4.53125 -3.90625 4.796875 -4.179688 5.046875 -4.390625 C 5.296875 -4.597656 5.507812 -4.703125 5.6875 -4.703125 C 5.726562 -4.703125 5.820312 -4.664062 5.96875 -4.59375 C 6.113281 -4.519531 6.222656 -4.457031 6.296875 -4.40625 C 6.359375 -4.375 6.390625 -4.328125 6.390625 -4.265625 C 6.390625 -4.171875 6.347656 -4.125 6.265625 -4.125 L 6.171875 -4.125 C 6.140625 -4.125 6.101562 -4.117188 6.0625 -4.109375 C 6.03125 -4.109375 5.976562 -4.09375 5.90625 -4.0625 C 5.726562 -3.976562 5.507812 -3.828125 5.25 -3.609375 C 5 -3.390625 4.726562 -3.128906 4.4375 -2.828125 C 4.15625 -2.523438 3.890625 -2.222656 3.640625 -1.921875 C 3.390625 -1.617188 3.175781 -1.34375 3 -1.09375 C 2.820312 -0.84375 2.703125 -0.660156 2.640625 -0.546875 C 2.753906 -0.710938 2.929688 -0.914062 3.171875 -1.15625 C 3.421875 -1.394531 3.707031 -1.644531 4.03125 -1.90625 C 4.351562 -2.164062 4.6875 -2.40625 5.03125 -2.625 C 5.382812 -2.84375 5.71875 -3.015625 6.03125 -3.140625 C 6.300781 -3.253906 6.539062 -3.3125 6.75 -3.3125 C 7.039062 -3.3125 7.242188 -3.21875 7.359375 -3.03125 C 7.484375 -2.84375 7.566406 -2.609375 7.609375 -2.328125 C 7.648438 -2.054688 7.679688 -1.78125 7.703125 -1.5 C 7.753906 -1.050781 7.847656 -0.738281 7.984375 -0.5625 C 8.128906 -0.382812 8.3125 -0.296875 8.53125 -0.296875 C 8.695312 -0.296875 8.882812 -0.332031 9.09375 -0.40625 C 9.3125 -0.488281 9.546875 -0.585938 9.796875 -0.703125 C 10.285156 -0.953125 10.789062 -1.257812 11.3125 -1.625 C 11.832031 -2 12.335938 -2.382812 12.828125 -2.78125 L 13.9375 -3.703125 C 14.03125 -3.773438 14.085938 -3.8125 14.109375 -3.8125 C 14.179688 -3.8125 14.125 -3.675781 13.9375 -3.40625 C 13.757812 -3.144531 13.460938 -2.84375 13.046875 -2.5 C 12.734375 -2.238281 12.378906 -1.957031 11.984375 -1.65625 C 11.585938 -1.351562 11.175781 -1.066406 10.75 -0.796875 C 10.320312 -0.523438 9.890625 -0.300781 9.453125 -0.125 C 9.023438 0.0507812 8.625 0.140625 8.25 0.140625 C 7.90625 0.140625 7.644531 0.0429688 7.46875 -0.140625 C 7.300781 -0.335938 7.179688 -0.582031 7.109375 -0.875 C 7.035156 -1.164062 6.972656 -1.457031 6.921875 -1.75 C 6.878906 -2.039062 6.804688 -2.28125 6.703125 -2.46875 C 6.609375 -2.664062 6.441406 -2.765625 6.203125 -2.765625 C 6.054688 -2.765625 5.878906 -2.722656 5.671875 -2.640625 C 5.472656 -2.554688 5.234375 -2.414062 4.953125 -2.21875 C 4.578125 -1.957031 4.238281 -1.695312 3.9375 -1.4375 C 3.644531 -1.175781 3.375 -0.921875 3.125 -0.671875 C 3.039062 -0.585938 2.9375 -0.476562 2.8125 -0.34375 C 2.695312 -0.21875 2.59375 -0.101562 2.5 0 C 2.414062 0.09375 2.367188 0.140625 2.359375 0.140625 Z M 2.359375 0.140625 "/></g></g></g><g fill="#060935" fill-opacity="1"><g transform="translate(207.692184, 253.334366)"><g/></g></g><g fill="#060935" fill-opacity="1"><g transform="translate(214.306388, 253.334366)"><g><path d="M 10.3125 5.03125 C 10.269531 5.03125 10.21875 5.015625 10.15625 4.984375 C 10.09375 4.953125 10.066406 4.921875 10.078125 4.890625 C 10.347656 4.148438 10.894531 3.316406 11.71875 2.390625 C 12.550781 1.460938 13.550781 0.519531 14.71875 -0.4375 L 14.484375 -0.625 C 13.953125 -0.0195312 13.457031 0.519531 13 1 C 12.539062 1.476562 12.1875 1.816406 11.9375 2.015625 C 11.789062 2.128906 11.660156 2.1875 11.546875 2.1875 C 11.492188 2.1875 11.46875 2.160156 11.46875 2.109375 C 11.46875 2.035156 11.550781 1.921875 11.71875 1.765625 C 11.78125 1.691406 11.9375 1.507812 12.1875 1.21875 C 12.445312 0.9375 12.742188 0.597656 13.078125 0.203125 C 13.421875 -0.191406 13.753906 -0.578125 14.078125 -0.953125 C 13.773438 -1.222656 13.472656 -1.492188 13.171875 -1.765625 C 12.867188 -2.035156 12.570312 -2.316406 12.28125 -2.609375 C 12.238281 -2.640625 12.21875 -2.679688 12.21875 -2.734375 C 12.21875 -2.859375 12.289062 -2.921875 12.4375 -2.921875 C 12.507812 -2.921875 12.585938 -2.890625 12.671875 -2.828125 C 13.222656 -2.285156 13.785156 -1.769531 14.359375 -1.28125 C 14.523438 -1.488281 14.675781 -1.671875 14.8125 -1.828125 C 14.957031 -1.992188 15.070312 -2.128906 15.15625 -2.234375 C 15.375 -2.492188 15.640625 -2.804688 15.953125 -3.171875 C 16.265625 -3.546875 16.570312 -3.945312 16.875 -4.375 C 17.1875 -4.8125 17.441406 -5.242188 17.640625 -5.671875 C 17.835938 -6.109375 17.9375 -6.523438 17.9375 -6.921875 C 17.9375 -7.015625 17.925781 -7.101562 17.90625 -7.1875 C 17.894531 -7.28125 17.878906 -7.363281 17.859375 -7.4375 C 17.628906 -8.039062 17.144531 -8.457031 16.40625 -8.6875 C 15.664062 -8.925781 14.804688 -9.046875 13.828125 -9.046875 C 13.117188 -9.046875 12.382812 -9 11.625 -8.90625 C 10.863281 -8.8125 10.109375 -8.691406 9.359375 -8.546875 C 8.609375 -8.410156 7.910156 -8.257812 7.265625 -8.09375 C 6.617188 -7.925781 6.0625 -7.769531 5.59375 -7.625 C 5.125 -7.488281 4.78125 -7.375 4.5625 -7.28125 C 3.425781 -6.8125 2.488281 -6.296875 1.75 -5.734375 C 1.019531 -5.179688 0.613281 -4.585938 0.53125 -3.953125 C 0.488281 -3.703125 0.546875 -3.476562 0.703125 -3.28125 C 0.867188 -3.09375 1.082031 -2.929688 1.34375 -2.796875 C 1.613281 -2.671875 1.894531 -2.578125 2.1875 -2.515625 C 2.488281 -2.453125 2.769531 -2.421875 3.03125 -2.421875 C 3.070312 -2.421875 3.171875 -2.410156 3.328125 -2.390625 C 3.484375 -2.378906 3.640625 -2.382812 3.796875 -2.40625 L 3.828125 -2.40625 C 3.910156 -2.40625 3.976562 -2.390625 4.03125 -2.359375 C 4.09375 -2.328125 4.125 -2.285156 4.125 -2.234375 C 4.125 -2.203125 4.070312 -2.15625 3.96875 -2.09375 C 3.851562 -2.050781 3.707031 -2.019531 3.53125 -2 C 3.363281 -1.976562 3.195312 -1.96875 3.03125 -1.96875 C 2.707031 -1.96875 2.367188 -2.023438 2.015625 -2.140625 C 1.660156 -2.265625 1.328125 -2.429688 1.015625 -2.640625 C 0.710938 -2.859375 0.472656 -3.101562 0.296875 -3.375 C 0.117188 -3.644531 0.0507812 -3.9375 0.09375 -4.25 C 0.15625 -4.914062 0.554688 -5.550781 1.296875 -6.15625 C 2.046875 -6.757812 3.039062 -7.304688 4.28125 -7.796875 C 4.46875 -7.878906 4.796875 -7.984375 5.265625 -8.109375 C 5.734375 -8.242188 6.285156 -8.390625 6.921875 -8.546875 C 7.566406 -8.703125 8.265625 -8.847656 9.015625 -8.984375 C 9.765625 -9.117188 10.53125 -9.226562 11.3125 -9.3125 C 12.09375 -9.40625 12.851562 -9.453125 13.59375 -9.453125 C 14.46875 -9.453125 15.265625 -9.375 15.984375 -9.21875 C 16.703125 -9.0625 17.269531 -8.785156 17.6875 -8.390625 C 18.113281 -8.003906 18.328125 -7.476562 18.328125 -6.8125 C 18.328125 -6.75 18.328125 -6.6875 18.328125 -6.625 C 18.328125 -6.5625 18.320312 -6.5 18.3125 -6.4375 C 18.28125 -6.144531 18.15625 -5.785156 17.9375 -5.359375 C 17.726562 -4.941406 17.457031 -4.484375 17.125 -3.984375 C 16.800781 -3.492188 16.4375 -2.988281 16.03125 -2.46875 C 15.625 -1.945312 15.207031 -1.445312 14.78125 -0.96875 L 15.078125 -0.734375 C 16.085938 -1.578125 17.179688 -2.410156 18.359375 -3.234375 C 19.535156 -4.054688 20.734375 -4.84375 21.953125 -5.59375 C 23.171875 -6.351562 24.359375 -7.050781 25.515625 -7.6875 C 26.679688 -8.320312 27.773438 -8.867188 28.796875 -9.328125 C 29.828125 -9.796875 30.722656 -10.144531 31.484375 -10.375 C 31.703125 -10.445312 31.898438 -10.484375 32.078125 -10.484375 C 32.421875 -10.484375 32.59375 -10.351562 32.59375 -10.09375 C 32.59375 -9.914062 32.515625 -9.703125 32.359375 -9.453125 C 32.304688 -9.367188 32.226562 -9.28125 32.125 -9.1875 C 32.019531 -9.09375 31.9375 -9.046875 31.875 -9.046875 C 31.851562 -9.046875 31.84375 -9.066406 31.84375 -9.109375 C 31.84375 -9.140625 31.859375 -9.195312 31.890625 -9.28125 C 32.046875 -9.582031 32.125 -9.789062 32.125 -9.90625 C 32.125 -10.019531 32.054688 -10.078125 31.921875 -10.078125 C 31.878906 -10.078125 31.828125 -10.066406 31.765625 -10.046875 C 31.710938 -10.035156 31.648438 -10.019531 31.578125 -10 C 30.929688 -9.820312 30.128906 -9.503906 29.171875 -9.046875 C 28.222656 -8.597656 27.179688 -8.050781 26.046875 -7.40625 C 24.910156 -6.757812 23.734375 -6.050781 22.515625 -5.28125 C 21.304688 -4.507812 20.113281 -3.703125 18.9375 -2.859375 C 17.757812 -2.023438 16.648438 -1.195312 15.609375 -0.375 C 17.304688 0.769531 19.132812 1.632812 21.09375 2.21875 C 23.0625 2.8125 25.101562 3.109375 27.21875 3.109375 C 27.425781 3.109375 27.675781 3.085938 27.96875 3.046875 C 28.257812 3.003906 28.539062 2.925781 28.8125 2.8125 C 29.09375 2.707031 29.320312 2.5625 29.5 2.375 C 29.675781 2.195312 29.765625 1.976562 29.765625 1.71875 C 29.765625 1.570312 29.738281 1.425781 29.6875 1.28125 C 29.675781 1.238281 29.664062 1.195312 29.65625 1.15625 C 29.65625 1.125 29.65625 1.09375 29.65625 1.0625 C 29.65625 0.914062 29.691406 0.84375 29.765625 0.84375 C 29.828125 0.84375 29.894531 0.929688 29.96875 1.109375 C 30.070312 1.398438 30.125 1.671875 30.125 1.921875 C 30.125 2.335938 30 2.679688 29.75 2.953125 C 29.5 3.222656 29.175781 3.429688 28.78125 3.578125 C 28.382812 3.734375 27.96875 3.84375 27.53125 3.90625 C 27.101562 3.96875 26.707031 4 26.34375 4 C 24.269531 3.976562 22.296875 3.597656 20.421875 2.859375 C 18.554688 2.128906 16.816406 1.160156 15.203125 -0.046875 C 13.984375 0.929688 12.941406 1.859375 12.078125 2.734375 C 11.210938 3.617188 10.660156 4.375 10.421875 5 C 10.410156 5.019531 10.375 5.03125 10.3125 5.03125 Z M 10.3125 5.03125 "/></g></g></g><g fill="#060935" fill-opacity="1"><g transform="translate(238.557366, 253.334366)"><g><path d="M -2.171875 8.71875 C -2.492188 8.71875 -2.820312 8.671875 -3.15625 8.578125 C -3.488281 8.484375 -3.757812 8.328125 -3.96875 8.109375 C -4.1875 7.890625 -4.296875 7.597656 -4.296875 7.234375 C -4.296875 7.179688 -4.296875 7.128906 -4.296875 7.078125 C -4.296875 7.035156 -4.289062 6.992188 -4.28125 6.953125 C -4.1875 6.398438 -3.941406 5.878906 -3.546875 5.390625 C -3.148438 4.898438 -2.644531 4.441406 -2.03125 4.015625 C -1.425781 3.585938 -0.769531 3.191406 -0.0625 2.828125 C 0.644531 2.472656 1.363281 2.15625 2.09375 1.875 C 2.820312 1.601562 3.507812 1.367188 4.15625 1.171875 C 4.8125 0.972656 5.367188 0.828125 5.828125 0.734375 C 5.984375 0.703125 6.144531 0.675781 6.3125 0.65625 C 6.476562 0.632812 6.640625 0.613281 6.796875 0.59375 C 7.035156 0.132812 7.234375 -0.347656 7.390625 -0.859375 C 7.546875 -1.367188 7.625 -1.804688 7.625 -2.171875 C 7.625 -2.535156 7.546875 -2.773438 7.390625 -2.890625 L 7.34375 -2.84375 C 7.15625 -2.65625 6.878906 -2.351562 6.515625 -1.9375 C 6.148438 -1.519531 5.757812 -1.140625 5.34375 -0.796875 C 5.03125 -0.535156 4.710938 -0.320312 4.390625 -0.15625 C 4.078125 0.0078125 3.785156 0.09375 3.515625 0.09375 C 3.347656 0.09375 3.191406 0.0546875 3.046875 -0.015625 C 2.898438 -0.0859375 2.769531 -0.203125 2.65625 -0.359375 C 2.539062 -0.515625 2.484375 -0.707031 2.484375 -0.9375 C 2.484375 -1.3125 2.617188 -1.71875 2.890625 -2.15625 C 3.171875 -2.59375 3.515625 -3.007812 3.921875 -3.40625 C 3.953125 -3.445312 4.015625 -3.507812 4.109375 -3.59375 C 4.210938 -3.6875 4.300781 -3.757812 4.375 -3.8125 C 4.320312 -3.84375 4.34375 -3.925781 4.4375 -4.0625 C 4.539062 -4.207031 4.671875 -4.335938 4.828125 -4.453125 C 4.984375 -4.578125 5.117188 -4.601562 5.234375 -4.53125 C 5.335938 -4.476562 5.425781 -4.414062 5.5 -4.34375 C 5.582031 -4.28125 5.625 -4.210938 5.625 -4.140625 C 5.625 -4.078125 5.570312 -3.988281 5.46875 -3.875 L 5.09375 -3.53125 C 4.789062 -3.238281 4.476562 -2.925781 4.15625 -2.59375 C 3.84375 -2.269531 3.570312 -1.957031 3.34375 -1.65625 C 3.125 -1.363281 3 -1.101562 2.96875 -0.875 C 2.957031 -0.832031 2.953125 -0.789062 2.953125 -0.75 C 2.953125 -0.71875 2.953125 -0.6875 2.953125 -0.65625 C 2.953125 -0.3125 3.078125 -0.140625 3.328125 -0.140625 C 3.515625 -0.140625 3.734375 -0.210938 3.984375 -0.359375 C 4.242188 -0.503906 4.488281 -0.664062 4.71875 -0.84375 C 4.945312 -1.019531 5.109375 -1.148438 5.203125 -1.234375 C 5.546875 -1.515625 5.878906 -1.8125 6.203125 -2.125 C 6.523438 -2.445312 6.84375 -2.753906 7.15625 -3.046875 C 7.144531 -3.117188 7.179688 -3.210938 7.265625 -3.328125 C 7.347656 -3.441406 7.53125 -3.5 7.8125 -3.5 C 8.25 -3.5 8.46875 -3.160156 8.46875 -2.484375 C 8.46875 -2.160156 8.40625 -1.757812 8.28125 -1.28125 C 8.15625 -0.800781 7.960938 -0.277344 7.703125 0.28125 C 7.679688 0.332031 7.660156 0.378906 7.640625 0.421875 C 7.617188 0.472656 7.59375 0.523438 7.5625 0.578125 C 7.832031 0.578125 8.109375 0.597656 8.390625 0.640625 C 8.773438 0.679688 9.128906 0.75 9.453125 0.84375 C 9.785156 0.945312 9.992188 1.101562 10.078125 1.3125 C 10.078125 1.320312 10.078125 1.328125 10.078125 1.328125 C 10.085938 1.335938 10.09375 1.34375 10.09375 1.34375 C 10.09375 1.382812 10.066406 1.414062 10.015625 1.4375 C 9.972656 1.457031 9.9375 1.441406 9.90625 1.390625 C 9.84375 1.242188 9.65625 1.128906 9.34375 1.046875 C 9.039062 0.972656 8.710938 0.925781 8.359375 0.90625 C 8.191406 0.875 8.03125 0.859375 7.875 0.859375 C 7.726562 0.859375 7.570312 0.863281 7.40625 0.875 C 7.039062 1.582031 6.585938 2.300781 6.046875 3.03125 C 5.515625 3.769531 4.925781 4.476562 4.28125 5.15625 C 3.632812 5.832031 2.953125 6.4375 2.234375 6.96875 C 1.523438 7.507812 0.796875 7.9375 0.046875 8.25 C -0.703125 8.5625 -1.441406 8.71875 -2.171875 8.71875 Z M -2.359375 8.4375 C -1.640625 8.4375 -0.925781 8.273438 -0.21875 7.953125 C 0.488281 7.628906 1.179688 7.195312 1.859375 6.65625 C 2.535156 6.113281 3.171875 5.507812 3.765625 4.84375 C 4.359375 4.1875 4.894531 3.519531 5.375 2.84375 C 5.863281 2.164062 6.269531 1.535156 6.59375 0.953125 C 6.457031 0.960938 6.316406 0.976562 6.171875 1 C 6.035156 1.03125 5.890625 1.0625 5.734375 1.09375 C 4.941406 1.25 4.101562 1.488281 3.21875 1.8125 C 2.332031 2.144531 1.457031 2.539062 0.59375 3 C -0.269531 3.457031 -1.085938 3.957031 -1.859375 4.5 C -2.609375 5.03125 -3.144531 5.53125 -3.46875 6 C -3.800781 6.46875 -3.96875 6.878906 -3.96875 7.234375 C -3.96875 7.597656 -3.816406 7.890625 -3.515625 8.109375 C -3.210938 8.328125 -2.828125 8.4375 -2.359375 8.4375 Z M 7.921875 -5.328125 C 7.921875 -5.296875 7.859375 -5.296875 7.734375 -5.328125 C 7.609375 -5.359375 7.503906 -5.390625 7.421875 -5.421875 C 7.234375 -5.503906 7.019531 -5.597656 6.78125 -5.703125 C 6.550781 -5.804688 6.328125 -5.910156 6.109375 -6.015625 C 5.890625 -6.128906 5.710938 -6.226562 5.578125 -6.3125 C 5.546875 -6.351562 5.585938 -6.425781 5.703125 -6.53125 C 5.828125 -6.632812 5.941406 -6.675781 6.046875 -6.65625 C 6.222656 -6.507812 6.457031 -6.335938 6.75 -6.140625 C 7.039062 -5.941406 7.335938 -5.75 7.640625 -5.5625 C 7.828125 -5.445312 7.921875 -5.367188 7.921875 -5.328125 Z M 7.921875 -5.328125 "/></g></g></g><g fill="#060935" fill-opacity="1"><g transform="translate(246.529595, 253.334366)"><g/></g></g><g fill="#060935" fill-opacity="1"><g transform="translate(253.143799, 253.334366)"><g><path d="M 4.21875 2.90625 C 3.769531 2.90625 3.335938 2.851562 2.921875 2.75 C 2.378906 2.582031 1.894531 2.332031 1.46875 2 C 1.039062 1.675781 0.722656 1.25 0.515625 0.71875 C 0.503906 0.664062 0.492188 0.617188 0.484375 0.578125 C 0.472656 0.546875 0.46875 0.519531 0.46875 0.5 C 0.46875 0.414062 0.488281 0.375 0.53125 0.375 C 0.601562 0.375 0.664062 0.472656 0.71875 0.671875 C 0.914062 1.191406 1.210938 1.601562 1.609375 1.90625 C 2.015625 2.21875 2.492188 2.421875 3.046875 2.515625 C 3.203125 2.554688 3.351562 2.582031 3.5 2.59375 C 3.644531 2.601562 3.796875 2.609375 3.953125 2.609375 C 4.472656 2.609375 4.972656 2.53125 5.453125 2.375 C 5.941406 2.226562 6.390625 2.039062 6.796875 1.8125 C 7.296875 1.539062 7.851562 1.140625 8.46875 0.609375 C 9.09375 0.078125 9.734375 -0.535156 10.390625 -1.234375 C 11.046875 -1.941406 11.679688 -2.6875 12.296875 -3.46875 C 12.921875 -4.257812 13.484375 -5.046875 13.984375 -5.828125 C 14.492188 -6.617188 14.898438 -7.367188 15.203125 -8.078125 C 14.878906 -8.734375 14.410156 -9.195312 13.796875 -9.46875 C 13.179688 -9.75 12.492188 -9.890625 11.734375 -9.890625 C 11.441406 -9.890625 11.132812 -9.875 10.8125 -9.84375 C 9.21875 -9.65625 7.726562 -9.179688 6.34375 -8.421875 C 4.957031 -7.660156 3.707031 -6.773438 2.59375 -5.765625 C 2.21875 -5.421875 1.851562 -5.066406 1.5 -4.703125 C 1.144531 -4.335938 0.859375 -3.988281 0.640625 -3.65625 C 0.421875 -3.332031 0.3125 -3.050781 0.3125 -2.8125 C 0.3125 -2.738281 0.28125 -2.703125 0.21875 -2.703125 C 0.15625 -2.703125 0.109375 -2.75 0.078125 -2.84375 C 0.0351562 -2.96875 0 -3.082031 -0.03125 -3.1875 C -0.0625 -3.300781 -0.078125 -3.394531 -0.078125 -3.46875 C -0.078125 -3.53125 -0.0625 -3.597656 -0.03125 -3.671875 C 0.0585938 -3.960938 0.238281 -4.273438 0.5 -4.609375 C 0.769531 -4.941406 1.085938 -5.273438 1.453125 -5.609375 C 1.816406 -5.953125 2.1875 -6.269531 2.5625 -6.5625 C 3.75 -7.488281 5.035156 -8.265625 6.421875 -8.890625 C 7.804688 -9.523438 9.234375 -9.921875 10.703125 -10.078125 C 11.054688 -10.109375 11.40625 -10.125 11.75 -10.125 C 12.507812 -10.125 13.207031 -10.015625 13.84375 -9.796875 C 14.488281 -9.578125 15.023438 -9.210938 15.453125 -8.703125 L 15.5625 -9.015625 C 15.644531 -9.234375 15.707031 -9.34375 15.75 -9.34375 C 15.789062 -9.34375 15.820312 -9.3125 15.84375 -9.25 C 15.863281 -9.1875 15.875 -9.113281 15.875 -9.03125 C 15.875 -8.957031 15.867188 -8.910156 15.859375 -8.890625 L 15.671875 -8.390625 C 15.785156 -8.203125 15.890625 -8.003906 15.984375 -7.796875 C 16.078125 -7.585938 16.15625 -7.359375 16.21875 -7.109375 C 16.3125 -6.710938 16.375 -6.300781 16.40625 -5.875 C 16.445312 -5.445312 16.46875 -5.019531 16.46875 -4.59375 C 16.46875 -4.238281 16.457031 -3.882812 16.4375 -3.53125 C 16.414062 -3.1875 16.390625 -2.84375 16.359375 -2.5 C 16.648438 -3.1875 17.003906 -3.898438 17.421875 -4.640625 C 17.835938 -5.390625 18.296875 -6.113281 18.796875 -6.8125 C 19.304688 -7.519531 19.847656 -8.144531 20.421875 -8.6875 C 20.992188 -9.238281 21.582031 -9.664062 22.1875 -9.96875 C 22.800781 -10.269531 23.421875 -10.394531 24.046875 -10.34375 C 24.253906 -10.320312 24.445312 -10.238281 24.625 -10.09375 C 24.800781 -9.945312 24.890625 -9.757812 24.890625 -9.53125 C 24.890625 -9.445312 24.875 -9.351562 24.84375 -9.25 C 24.820312 -9.207031 24.796875 -9.164062 24.765625 -9.125 C 24.742188 -9.09375 24.722656 -9.078125 24.703125 -9.078125 C 24.660156 -9.078125 24.644531 -9.144531 24.65625 -9.28125 C 24.707031 -9.550781 24.628906 -9.710938 24.421875 -9.765625 C 24.210938 -9.828125 23.988281 -9.859375 23.75 -9.859375 C 23.269531 -9.859375 22.757812 -9.679688 22.21875 -9.328125 C 21.6875 -8.972656 21.140625 -8.507812 20.578125 -7.9375 C 20.015625 -7.375 19.472656 -6.75 18.953125 -6.0625 C 18.441406 -5.375 17.976562 -4.6875 17.5625 -4 C 17.144531 -3.3125 16.800781 -2.679688 16.53125 -2.109375 C 16.46875 -1.984375 16.410156 -1.851562 16.359375 -1.71875 C 16.304688 -1.582031 16.25 -1.453125 16.1875 -1.328125 C 16.144531 -1.023438 16.09375 -0.734375 16.03125 -0.453125 C 15.976562 -0.179688 15.921875 0.0703125 15.859375 0.3125 C 15.835938 0.40625 15.742188 0.507812 15.578125 0.625 C 15.472656 1.113281 15.421875 1.550781 15.421875 1.9375 C 15.410156 2.070312 15.363281 2.140625 15.28125 2.140625 C 15.195312 2.140625 15.15625 2.097656 15.15625 2.015625 C 15.144531 1.953125 15.140625 1.890625 15.140625 1.828125 C 15.140625 1.773438 15.140625 1.71875 15.140625 1.65625 C 15.140625 1.375 15.171875 1.078125 15.234375 0.765625 L 15.1875 0.765625 C 15.007812 0.765625 14.945312 0.6875 15 0.53125 C 15.113281 0.09375 15.222656 -0.421875 15.328125 -1.015625 C 15.429688 -1.617188 15.519531 -2.257812 15.59375 -2.9375 C 15.675781 -3.613281 15.71875 -4.289062 15.71875 -4.96875 C 15.71875 -5.289062 15.707031 -5.601562 15.6875 -5.90625 C 15.675781 -6.21875 15.644531 -6.519531 15.59375 -6.8125 C 15.570312 -6.976562 15.539062 -7.132812 15.5 -7.28125 C 15.457031 -7.425781 15.410156 -7.566406 15.359375 -7.703125 C 14.898438 -6.703125 14.359375 -5.6875 13.734375 -4.65625 C 13.109375 -3.632812 12.429688 -2.664062 11.703125 -1.75 C 10.984375 -0.832031 10.25 -0.0234375 9.5 0.671875 C 8.757812 1.367188 8.046875 1.878906 7.359375 2.203125 C 6.921875 2.398438 6.425781 2.566406 5.875 2.703125 C 5.320312 2.835938 4.769531 2.90625 4.21875 2.90625 Z M 4.21875 2.90625 "/></g></g></g><g fill="#060935" fill-opacity="1"><g transform="translate(271.098444, 253.334366)"><g><path d="M 8.1875 0.1875 C 7.832031 0.1875 7.519531 0.101562 7.25 -0.0625 C 6.988281 -0.238281 6.859375 -0.570312 6.859375 -1.0625 C 6.867188 -1.300781 6.910156 -1.550781 6.984375 -1.8125 C 7.066406 -2.082031 7.15625 -2.335938 7.25 -2.578125 C 7.09375 -2.398438 6.863281 -2.160156 6.5625 -1.859375 C 6.257812 -1.566406 5.914062 -1.269531 5.53125 -0.96875 C 5.144531 -0.675781 4.75 -0.421875 4.34375 -0.203125 C 3.945312 0.00390625 3.578125 0.109375 3.234375 0.109375 C 2.878906 0.109375 2.585938 -0.0195312 2.359375 -0.28125 C 2.210938 -0.445312 2.140625 -0.671875 2.140625 -0.953125 C 2.140625 -1.285156 2.242188 -1.644531 2.453125 -2.03125 C 2.671875 -2.414062 2.957031 -2.789062 3.3125 -3.15625 C 3.675781 -3.53125 4.066406 -3.863281 4.484375 -4.15625 C 4.898438 -4.457031 5.3125 -4.671875 5.71875 -4.796875 C 6.269531 -4.972656 6.703125 -5.0625 7.015625 -5.0625 C 7.359375 -5.0625 7.609375 -4.96875 7.765625 -4.78125 C 7.929688 -4.601562 8.035156 -4.34375 8.078125 -4 L 8.078125 -3.953125 C 8.078125 -3.867188 8.054688 -3.800781 8.015625 -3.75 C 7.972656 -3.695312 7.9375 -3.671875 7.90625 -3.671875 C 7.84375 -3.671875 7.8125 -3.71875 7.8125 -3.8125 C 7.8125 -3.875 7.800781 -3.957031 7.78125 -4.0625 C 7.769531 -4.175781 7.71875 -4.28125 7.625 -4.375 C 7.539062 -4.476562 7.394531 -4.53125 7.1875 -4.53125 C 6.882812 -4.53125 6.546875 -4.445312 6.171875 -4.28125 C 5.796875 -4.125 5.414062 -3.90625 5.03125 -3.625 C 4.644531 -3.34375 4.28125 -3.039062 3.9375 -2.71875 C 3.59375 -2.394531 3.304688 -2.070312 3.078125 -1.75 C 2.859375 -1.4375 2.734375 -1.160156 2.703125 -0.921875 C 2.691406 -0.878906 2.6875 -0.84375 2.6875 -0.8125 C 2.6875 -0.78125 2.6875 -0.75 2.6875 -0.71875 C 2.6875 -0.507812 2.726562 -0.363281 2.8125 -0.28125 C 2.90625 -0.195312 3.019531 -0.15625 3.15625 -0.15625 C 3.363281 -0.15625 3.601562 -0.21875 3.875 -0.34375 C 4.15625 -0.476562 4.414062 -0.628906 4.65625 -0.796875 C 4.894531 -0.960938 5.0625 -1.085938 5.15625 -1.171875 C 5.53125 -1.484375 5.953125 -1.828125 6.421875 -2.203125 C 6.890625 -2.585938 7.304688 -2.945312 7.671875 -3.28125 C 7.734375 -3.3125 7.800781 -3.328125 7.875 -3.328125 C 8.03125 -3.328125 8.160156 -3.285156 8.265625 -3.203125 C 8.304688 -3.171875 8.328125 -3.125 8.328125 -3.0625 C 8.328125 -3.007812 8.3125 -2.9375 8.28125 -2.84375 C 8.25 -2.757812 8.210938 -2.664062 8.171875 -2.5625 C 7.972656 -2.144531 7.804688 -1.769531 7.671875 -1.4375 C 7.546875 -1.113281 7.484375 -0.84375 7.484375 -0.625 C 7.484375 -0.269531 7.675781 -0.09375 8.0625 -0.09375 C 8.351562 -0.09375 8.785156 -0.195312 9.359375 -0.40625 C 9.984375 -0.644531 10.609375 -0.96875 11.234375 -1.375 C 11.859375 -1.789062 12.425781 -2.207031 12.9375 -2.625 C 13.0625 -2.726562 13.175781 -2.816406 13.28125 -2.890625 C 13.382812 -2.960938 13.5 -3.054688 13.625 -3.171875 C 13.644531 -3.179688 13.671875 -3.1875 13.703125 -3.1875 C 13.742188 -3.1875 13.765625 -3.171875 13.765625 -3.140625 C 13.765625 -3.109375 13.738281 -3.0625 13.6875 -3 C 13.613281 -2.90625 13.441406 -2.726562 13.171875 -2.46875 C 12.898438 -2.21875 12.566406 -1.9375 12.171875 -1.625 C 11.773438 -1.320312 11.34375 -1.023438 10.875 -0.734375 C 10.40625 -0.441406 9.9375 -0.210938 9.46875 -0.046875 C 9.289062 0.00390625 9.085938 0.0546875 8.859375 0.109375 C 8.628906 0.160156 8.40625 0.1875 8.1875 0.1875 Z M 8.1875 0.1875 "/></g></g></g><g fill="#060935" fill-opacity="1"><g transform="translate(281.363462, 253.334366)"><g><path d="M 1.96875 0.546875 C 1.75 0.546875 1.640625 0.488281 1.640625 0.375 C 1.640625 0.3125 1.664062 0.238281 1.71875 0.15625 C 1.769531 0.0820312 1.800781 0.0351562 1.8125 0.015625 C 1.90625 -0.203125 2.066406 -0.503906 2.296875 -0.890625 C 2.535156 -1.273438 2.8125 -1.679688 3.125 -2.109375 C 3.445312 -2.546875 3.773438 -2.960938 4.109375 -3.359375 C 4.453125 -3.753906 4.765625 -4.078125 5.046875 -4.328125 C 5.335938 -4.578125 5.570312 -4.703125 5.75 -4.703125 C 5.800781 -4.703125 5.898438 -4.664062 6.046875 -4.59375 C 6.191406 -4.519531 6.300781 -4.457031 6.375 -4.40625 C 6.425781 -4.375 6.453125 -4.328125 6.453125 -4.265625 C 6.453125 -4.171875 6.410156 -4.125 6.328125 -4.125 L 6.25 -4.125 C 6.082031 -4.125 5.847656 -4.007812 5.546875 -3.78125 C 5.242188 -3.5625 4.921875 -3.28125 4.578125 -2.9375 C 4.234375 -2.601562 3.894531 -2.253906 3.5625 -1.890625 C 3.226562 -1.523438 2.945312 -1.191406 2.71875 -0.890625 C 2.488281 -0.585938 2.347656 -0.375 2.296875 -0.25 C 2.421875 -0.394531 2.628906 -0.597656 2.921875 -0.859375 C 3.222656 -1.128906 3.554688 -1.414062 3.921875 -1.71875 C 4.285156 -2.019531 4.65625 -2.304688 5.03125 -2.578125 C 5.40625 -2.847656 5.75 -3.070312 6.0625 -3.25 C 6.382812 -3.425781 6.632812 -3.515625 6.8125 -3.515625 C 7.007812 -3.515625 7.203125 -3.429688 7.390625 -3.265625 C 7.585938 -3.097656 7.6875 -2.925781 7.6875 -2.75 C 7.6875 -2.5625 7.65625 -2.34375 7.59375 -2.09375 C 7.53125 -1.851562 7.457031 -1.625 7.375 -1.40625 C 7.300781 -1.1875 7.242188 -1.019531 7.203125 -0.90625 C 7.304688 -0.976562 7.453125 -1.140625 7.640625 -1.390625 C 7.828125 -1.640625 8.03125 -1.898438 8.25 -2.171875 C 8.46875 -2.453125 8.664062 -2.671875 8.84375 -2.828125 C 8.96875 -2.941406 9.070312 -3.019531 9.15625 -3.0625 C 9.25 -3.101562 9.316406 -3.125 9.359375 -3.125 C 9.460938 -3.125 9.53125 -3.078125 9.5625 -2.984375 C 9.59375 -2.898438 9.613281 -2.816406 9.625 -2.734375 C 9.664062 -2.585938 9.707031 -2.390625 9.75 -2.140625 C 9.800781 -1.890625 9.878906 -1.625 9.984375 -1.34375 C 10.097656 -1.070312 10.269531 -0.835938 10.5 -0.640625 C 10.59375 -0.554688 10.695312 -0.5 10.8125 -0.46875 C 10.925781 -0.4375 11.054688 -0.421875 11.203125 -0.421875 C 11.429688 -0.421875 11.679688 -0.457031 11.953125 -0.53125 C 12.222656 -0.613281 12.460938 -0.703125 12.671875 -0.796875 C 13.160156 -1.046875 13.640625 -1.335938 14.109375 -1.671875 C 14.578125 -2.015625 15.054688 -2.382812 15.546875 -2.78125 L 16.65625 -3.703125 C 16.75 -3.773438 16.804688 -3.8125 16.828125 -3.8125 C 16.890625 -3.8125 16.828125 -3.675781 16.640625 -3.40625 C 16.460938 -3.144531 16.171875 -2.84375 15.765625 -2.5 C 15.484375 -2.28125 15.15625 -2.019531 14.78125 -1.71875 C 14.40625 -1.425781 14.007812 -1.148438 13.59375 -0.890625 C 13.175781 -0.628906 12.753906 -0.410156 12.328125 -0.234375 C 12.109375 -0.148438 11.894531 -0.078125 11.6875 -0.015625 C 11.476562 0.046875 11.273438 0.078125 11.078125 0.078125 C 10.640625 0.078125 10.285156 -0.0195312 10.015625 -0.21875 C 9.753906 -0.414062 9.554688 -0.65625 9.421875 -0.9375 C 9.285156 -1.226562 9.1875 -1.507812 9.125 -1.78125 C 9.0625 -2.0625 9 -2.285156 8.9375 -2.453125 C 8.738281 -2.273438 8.535156 -2.050781 8.328125 -1.78125 C 8.128906 -1.519531 7.941406 -1.265625 7.765625 -1.015625 C 7.597656 -0.773438 7.46875 -0.59375 7.375 -0.46875 C 7.257812 -0.320312 7.125 -0.25 6.96875 -0.25 C 6.875 -0.25 6.789062 -0.28125 6.71875 -0.34375 C 6.644531 -0.414062 6.609375 -0.523438 6.609375 -0.671875 C 6.609375 -0.835938 6.644531 -1.039062 6.71875 -1.28125 C 6.800781 -1.519531 6.878906 -1.765625 6.953125 -2.015625 C 7.035156 -2.273438 7.078125 -2.5 7.078125 -2.6875 C 7.078125 -2.84375 7.039062 -2.953125 6.96875 -3.015625 C 6.894531 -3.085938 6.804688 -3.125 6.703125 -3.125 C 6.554688 -3.125 6.394531 -3.078125 6.21875 -2.984375 C 6.050781 -2.898438 5.898438 -2.816406 5.765625 -2.734375 C 5.648438 -2.648438 5.460938 -2.503906 5.203125 -2.296875 C 4.953125 -2.097656 4.675781 -1.863281 4.375 -1.59375 C 4.070312 -1.332031 3.769531 -1.0625 3.46875 -0.78125 C 3.09375 -0.425781 2.769531 -0.117188 2.5 0.140625 C 2.226562 0.410156 2.050781 0.546875 1.96875 0.546875 Z M 1.96875 0.546875 "/></g></g></g><g fill="#060935" fill-opacity="1"><g transform="translate(91.613467, 157.076239)"><g><path d="M 44.484375 21.671875 C 44.285156 21.671875 44.046875 21.609375 43.765625 21.484375 C 43.484375 21.359375 43.367188 21.21875 43.421875 21.0625 C 44.585938 17.875 46.957031 14.285156 50.53125 10.296875 C 54.101562 6.316406 58.398438 2.246094 63.421875 -1.90625 L 62.4375 -2.65625 C 60.15625 -0.0703125 58.023438 2.242188 56.046875 4.296875 C 54.066406 6.347656 52.546875 7.804688 51.484375 8.671875 C 50.828125 9.179688 50.269531 9.4375 49.8125 9.4375 C 49.5625 9.4375 49.4375 9.332031 49.4375 9.125 C 49.4375 8.769531 49.789062 8.265625 50.5 7.609375 C 50.800781 7.296875 51.492188 6.519531 52.578125 5.28125 C 53.671875 4.039062 54.953125 2.570312 56.421875 0.875 C 57.890625 -0.820312 59.3125 -2.484375 60.6875 -4.109375 C 59.363281 -5.273438 58.054688 -6.441406 56.765625 -7.609375 C 55.472656 -8.773438 54.191406 -9.988281 52.921875 -11.25 C 52.773438 -11.40625 52.703125 -11.582031 52.703125 -11.78125 C 52.703125 -12.34375 53.003906 -12.625 53.609375 -12.625 C 53.910156 -12.625 54.242188 -12.472656 54.609375 -12.171875 C 56.984375 -9.835938 59.414062 -7.628906 61.90625 -5.546875 C 62.613281 -6.410156 63.269531 -7.195312 63.875 -7.90625 C 64.488281 -8.613281 64.972656 -9.195312 65.328125 -9.65625 C 66.285156 -10.769531 67.4375 -12.125 68.78125 -13.71875 C 70.125 -15.320312 71.453125 -17.046875 72.765625 -18.890625 C 74.085938 -20.742188 75.179688 -22.609375 76.046875 -24.484375 C 76.910156 -26.359375 77.34375 -28.132812 77.34375 -29.8125 C 77.34375 -30.21875 77.300781 -30.609375 77.21875 -30.984375 C 77.144531 -31.367188 77.054688 -31.738281 76.953125 -32.09375 C 75.992188 -34.675781 73.914062 -36.472656 70.71875 -37.484375 C 67.53125 -38.503906 63.832031 -39.015625 59.625 -39.015625 C 56.582031 -39.015625 53.410156 -38.8125 50.109375 -38.40625 C 46.816406 -38 43.5625 -37.488281 40.34375 -36.875 C 37.125 -36.269531 34.117188 -35.613281 31.328125 -34.90625 C 28.546875 -34.195312 26.140625 -33.535156 24.109375 -32.921875 C 22.078125 -32.316406 20.609375 -31.8125 19.703125 -31.40625 C 14.773438 -29.375 10.726562 -27.15625 7.5625 -24.75 C 4.394531 -22.34375 2.632812 -19.769531 2.28125 -17.03125 C 2.125 -15.96875 2.390625 -15.015625 3.078125 -14.171875 C 3.765625 -13.335938 4.675781 -12.640625 5.8125 -12.078125 C 6.957031 -11.523438 8.175781 -11.109375 9.46875 -10.828125 C 10.757812 -10.554688 11.960938 -10.421875 13.078125 -10.421875 C 13.234375 -10.421875 13.648438 -10.394531 14.328125 -10.34375 C 15.015625 -10.289062 15.6875 -10.289062 16.34375 -10.34375 L 16.5 -10.34375 C 16.851562 -10.34375 17.15625 -10.28125 17.40625 -10.15625 C 17.664062 -10.03125 17.796875 -9.863281 17.796875 -9.65625 C 17.796875 -9.507812 17.566406 -9.304688 17.109375 -9.046875 C 16.597656 -8.847656 15.972656 -8.707031 15.234375 -8.625 C 14.503906 -8.550781 13.785156 -8.515625 13.078125 -8.515625 C 11.660156 -8.515625 10.191406 -8.765625 8.671875 -9.265625 C 7.148438 -9.773438 5.726562 -10.488281 4.40625 -11.40625 C 3.09375 -12.320312 2.054688 -13.363281 1.296875 -14.53125 C 0.535156 -15.695312 0.226562 -16.960938 0.375 -18.328125 C 0.6875 -21.210938 2.4375 -23.945312 5.625 -26.53125 C 8.820312 -29.125 13.109375 -31.484375 18.484375 -33.609375 C 19.296875 -33.960938 20.703125 -34.414062 22.703125 -34.96875 C 24.703125 -35.53125 27.082031 -36.15625 29.84375 -36.84375 C 32.613281 -37.53125 35.617188 -38.164062 38.859375 -38.75 C 42.109375 -39.332031 45.414062 -39.8125 48.78125 -40.1875 C 52.15625 -40.570312 55.4375 -40.765625 58.625 -40.765625 C 62.382812 -40.765625 65.804688 -40.421875 68.890625 -39.734375 C 71.984375 -39.046875 74.441406 -37.863281 76.265625 -36.1875 C 78.097656 -34.519531 79.015625 -32.242188 79.015625 -29.359375 C 79.015625 -29.097656 79.015625 -28.828125 79.015625 -28.546875 C 79.015625 -28.273438 78.988281 -28.007812 78.9375 -27.75 C 78.78125 -26.488281 78.242188 -24.941406 77.328125 -23.109375 C 76.421875 -21.285156 75.257812 -19.3125 73.84375 -17.1875 C 72.425781 -15.0625 70.84375 -12.878906 69.09375 -10.640625 C 67.34375 -8.410156 65.554688 -6.257812 63.734375 -4.1875 L 65.015625 -3.1875 C 69.378906 -6.789062 74.09375 -10.363281 79.15625 -13.90625 C 84.226562 -17.457031 89.390625 -20.867188 94.640625 -24.140625 C 99.890625 -27.410156 105.019531 -30.414062 110.03125 -33.15625 C 115.050781 -35.894531 119.765625 -38.265625 124.171875 -40.265625 C 128.585938 -42.265625 132.445312 -43.75 135.75 -44.71875 C 136.65625 -45.019531 137.488281 -45.171875 138.25 -45.171875 C 139.769531 -45.171875 140.53125 -44.613281 140.53125 -43.5 C 140.53125 -42.738281 140.175781 -41.828125 139.46875 -40.765625 C 139.269531 -40.410156 138.941406 -40.03125 138.484375 -39.625 C 138.023438 -39.21875 137.671875 -39.015625 137.421875 -39.015625 C 137.316406 -39.015625 137.265625 -39.085938 137.265625 -39.234375 C 137.265625 -39.390625 137.34375 -39.644531 137.5 -40 C 138.15625 -41.320312 138.484375 -42.234375 138.484375 -42.734375 C 138.484375 -43.191406 138.203125 -43.421875 137.640625 -43.421875 C 137.441406 -43.421875 137.210938 -43.394531 136.953125 -43.34375 C 136.703125 -43.289062 136.425781 -43.21875 136.125 -43.125 C 133.332031 -42.363281 129.882812 -41.003906 125.78125 -39.046875 C 121.675781 -37.097656 117.175781 -34.726562 112.28125 -31.9375 C 107.382812 -29.144531 102.328125 -26.085938 97.109375 -22.765625 C 91.890625 -19.453125 86.734375 -15.984375 81.640625 -12.359375 C 76.546875 -8.734375 71.765625 -5.144531 67.296875 -1.59375 C 74.597656 3.320312 82.484375 7.046875 90.953125 9.578125 C 99.421875 12.117188 108.21875 13.390625 117.34375 13.390625 C 118.25 13.390625 119.320312 13.300781 120.5625 13.125 C 121.8125 12.945312 123.03125 12.628906 124.21875 12.171875 C 125.414062 11.710938 126.394531 11.085938 127.15625 10.296875 C 127.914062 9.515625 128.296875 8.539062 128.296875 7.375 C 128.296875 6.769531 128.191406 6.160156 127.984375 5.546875 C 127.929688 5.347656 127.890625 5.171875 127.859375 5.015625 C 127.835938 4.867188 127.828125 4.71875 127.828125 4.5625 C 127.828125 3.957031 127.984375 3.65625 128.296875 3.65625 C 128.597656 3.65625 128.898438 4.035156 129.203125 4.796875 C 129.660156 6.054688 129.890625 7.222656 129.890625 8.296875 C 129.890625 10.066406 129.34375 11.535156 128.25 12.703125 C 127.164062 13.867188 125.769531 14.78125 124.0625 15.4375 C 122.363281 16.09375 120.578125 16.5625 118.703125 16.84375 C 116.828125 17.125 115.101562 17.265625 113.53125 17.265625 C 104.613281 17.160156 96.125 15.523438 88.0625 12.359375 C 80 9.191406 72.492188 4.992188 65.546875 -0.234375 C 60.273438 4.023438 55.773438 8.039062 52.046875 11.8125 C 48.328125 15.59375 45.957031 18.828125 44.9375 21.515625 C 44.894531 21.617188 44.742188 21.671875 44.484375 21.671875 Z M 44.484375 21.671875 "/></g></g></g><g fill="#060935" fill-opacity="1"><g transform="translate(194.255747, 157.076239)"><g><path d="M 10.1875 0.609375 L 9.890625 0.609375 C 9.378906 0.609375 9.125 0.304688 9.125 -0.296875 C 9.125 -0.804688 9.238281 -1.328125 9.46875 -1.859375 C 9.695312 -2.390625 9.835938 -2.734375 9.890625 -2.890625 C 10.296875 -3.753906 10.941406 -4.894531 11.828125 -6.3125 C 12.710938 -7.726562 13.710938 -9.234375 14.828125 -10.828125 C 15.941406 -12.429688 17.109375 -13.953125 18.328125 -15.390625 C 19.546875 -16.835938 20.6875 -18.015625 21.75 -18.921875 C 22.8125 -19.835938 23.722656 -20.296875 24.484375 -20.296875 C 24.691406 -20.296875 25.109375 -20.128906 25.734375 -19.796875 C 26.367188 -19.472656 26.84375 -19.210938 27.15625 -19.015625 C 27.40625 -18.859375 27.53125 -18.65625 27.53125 -18.40625 C 27.53125 -18 27.351562 -17.796875 27 -17.796875 L 26.609375 -17.796875 C 26.460938 -17.796875 26.3125 -17.78125 26.15625 -17.75 C 26.007812 -17.726562 25.78125 -17.640625 25.46875 -17.484375 C 24.707031 -17.128906 23.769531 -16.484375 22.65625 -15.546875 C 21.539062 -14.609375 20.375 -13.492188 19.15625 -12.203125 C 17.945312 -10.910156 16.796875 -9.601562 15.703125 -8.28125 C 14.609375 -6.96875 13.679688 -5.78125 12.921875 -4.71875 C 12.160156 -3.65625 11.65625 -2.867188 11.40625 -2.359375 C 11.863281 -3.066406 12.625 -3.941406 13.6875 -4.984375 C 14.75 -6.023438 15.976562 -7.101562 17.375 -8.21875 C 18.769531 -9.332031 20.210938 -10.359375 21.703125 -11.296875 C 23.203125 -12.234375 24.640625 -12.976562 26.015625 -13.53125 C 27.171875 -14.039062 28.207031 -14.296875 29.125 -14.296875 C 30.34375 -14.296875 31.21875 -13.890625 31.75 -13.078125 C 32.28125 -12.265625 32.632812 -11.265625 32.8125 -10.078125 C 32.988281 -8.890625 33.128906 -7.6875 33.234375 -6.46875 C 33.429688 -4.539062 33.832031 -3.195312 34.4375 -2.4375 C 35.050781 -1.675781 35.84375 -1.296875 36.8125 -1.296875 C 37.519531 -1.296875 38.328125 -1.457031 39.234375 -1.78125 C 40.148438 -2.113281 41.140625 -2.535156 42.203125 -3.046875 C 44.335938 -4.109375 46.53125 -5.4375 48.78125 -7.03125 C 51.039062 -8.632812 53.207031 -10.296875 55.28125 -12.015625 L 60.078125 -15.96875 C 60.484375 -16.269531 60.738281 -16.421875 60.84375 -16.421875 C 61.144531 -16.421875 60.898438 -15.847656 60.109375 -14.703125 C 59.328125 -13.566406 58.050781 -12.265625 56.28125 -10.796875 C 54.90625 -9.679688 53.367188 -8.460938 51.671875 -7.140625 C 49.972656 -5.828125 48.195312 -4.585938 46.34375 -3.421875 C 44.5 -2.253906 42.648438 -1.289062 40.796875 -0.53125 C 38.953125 0.226562 37.21875 0.609375 35.59375 0.609375 C 34.070312 0.609375 32.941406 0.191406 32.203125 -0.640625 C 31.472656 -1.484375 30.953125 -2.523438 30.640625 -3.765625 C 30.335938 -5.003906 30.082031 -6.257812 29.875 -7.53125 C 29.675781 -8.800781 29.363281 -9.851562 28.9375 -10.6875 C 28.507812 -11.519531 27.785156 -11.9375 26.765625 -11.9375 C 26.109375 -11.9375 25.347656 -11.757812 24.484375 -11.40625 C 23.617188 -11.050781 22.582031 -10.441406 21.375 -9.578125 C 19.75 -8.460938 18.289062 -7.332031 17 -6.1875 C 15.707031 -5.050781 14.523438 -3.953125 13.453125 -2.890625 C 13.097656 -2.535156 12.664062 -2.078125 12.15625 -1.515625 C 11.65625 -0.960938 11.210938 -0.46875 10.828125 -0.03125 C 10.453125 0.394531 10.238281 0.609375 10.1875 0.609375 Z M 10.1875 0.609375 "/></g></g></g></svg>